<?xml version="1.0" encoding="utf-8"?>
<!-- Generator: Adobe Illustrator 24.3.0, SVG Export Plug-In . SVG Version: 6.00 Build 0)  -->
<svg version="1.1" id="Layer_1" xmlns="http://www.w3.org/2000/svg" xmlns:xlink="http://www.w3.org/1999/xlink" x="0px" y="0px"
	 viewBox="0 0 500 500" style="enable-background:new 0 0 500 500;" xml:space="preserve">
<style type="text/css">
	.st0{fill:#0066DA;}
	.st1{fill:#00AD48;}
	.st2{fill:#FFB800;}
	.st3{fill:#00832C;}
	.st4{fill:#E54235;}
	.st5{fill:#2585FE;}
	.st6{fill:#00AC48;}
</style>
<g>
	<path class="st0" d="M126.7,327.8v105.3H42.8c-15.3,0-27.9-12.6-27.9-27.9v-77.4H126.7z"/>
	<path class="st1" d="M386.4,333.4v71.8c0,15.3-12.4,27.9-27.7,27.9H126.7V327.8h154V250L386.4,333.4z"/>
	<path class="st2" d="M386.4,94.8v71.8L280.7,250v-72.3H126.9V66.9h231.7C374,66.9,386.4,79.5,386.4,94.8z"/>
	<polygon class="st3" points="386.4,166.6 386.4,333.4 280.7,250 	"/>
	<polygon class="st4" points="126.9,66.9 126.9,177.7 14.9,177.7 	"/>
	<rect x="14.9" y="177.7" class="st5" width="111.8" height="150.1"/>
	<path class="st6" d="M485.1,127.7v244.5c0,15.8-18.2,24.7-30.6,14.8l-68.1-53.6V166.6l68.1-53.8C466.9,103.2,485.1,112,485.1,127.7
		z"/>
</g>
</svg>
