<?xml version="1.0" encoding="utf-8"?>
<!-- Generator: Adobe Illustrator 24.3.0, SVG Export Plug-In . SVG Version: 6.00 Build 0)  -->
<svg version="1.1" id="Layer_1" xmlns="http://www.w3.org/2000/svg" xmlns:xlink="http://www.w3.org/1999/xlink" x="0px" y="0px"
	 viewBox="0 0 500 500" style="enable-background:new 0 0 500 500;" xml:space="preserve">
<style type="text/css">
	.st0{fill:#FD3E81;}
</style>
<g>
	<g>
		<path class="st0" d="M432.6,401.9H67.4c-27.8,0-50.4-22.6-50.4-50.4v-203c0-27.8,22.6-50.4,50.4-50.4h365.2
			c27.8,0,50.4,22.6,50.4,50.4v203C483,379.3,460.4,401.9,432.6,401.9z M67.4,121.3c-15,0-27.2,12.2-27.2,27.2v203
			c0,15,12.2,27.2,27.2,27.2h365.2c15,0,27.2-12.2,27.2-27.2v-203c0-15-12.2-27.2-27.2-27.2H67.4z"/>
	</g>
	<g>
		<path class="st0" d="M250,305.4c-2.6,0-5.2-0.9-7.3-2.6L30.8,132.2c-5-4-5.8-11.3-1.8-16.3c4-5,11.3-5.8,16.3-1.8l204.5,164.7
			l201.9-167.4c5-4.1,12.3-3.4,16.3,1.5c4.1,4.9,3.4,12.3-1.5,16.3L257.4,302.7C255.3,304.5,252.6,305.4,250,305.4z"/>
	</g>
	<g>
		<path class="st0" d="M38.1,388.5c-2.9,0-5.8-1.1-8-3.2c-4.6-4.4-4.8-11.8-0.3-16.4l137.5-143.1c4.4-4.6,11.8-4.8,16.4-0.3
			c4.6,4.4,4.8,11.8,0.3,16.4L46.5,385C44.2,387.3,41.1,388.5,38.1,388.5z"/>
	</g>
	<g>
		<path class="st0" d="M461.9,388.5c-3.1,0-6.2-1.2-8.5-3.7L317,239.1c-4.4-4.7-4.1-12,0.5-16.4c4.7-4.4,12-4.1,16.4,0.5L470.3,369
			c4.4,4.7,4.1,12-0.5,16.4C467.5,387.5,464.7,388.5,461.9,388.5z"/>
	</g>
</g>
</svg>
