<?xml version="1.0" encoding="utf-8"?>
<!-- Generator: Adobe Illustrator 24.3.0, SVG Export Plug-In . SVG Version: 6.00 Build 0)  -->
<svg version="1.1" id="Layer_1" xmlns="http://www.w3.org/2000/svg" xmlns:xlink="http://www.w3.org/1999/xlink" x="0px" y="0px"
	 viewBox="0 0 500 500" style="enable-background:new 0 0 500 500;" xml:space="preserve">
<style type="text/css">
	.st0{fill:#ECEBEC;}
	.st1{fill:#24950C;}
</style>
<g>
	<path class="st0" d="M399.7,387.8c-63.8,63.8-159.5,76.4-235.8,37.5L40.8,459.1l38.8-114C35,267.5,46,166.7,112.3,100.4
		c79.4-79.4,207.9-79.4,287.3,0C479,179.8,479.1,308.4,399.7,387.8z"/>
	<path class="st1" d="M371.6,361.2c-53.4,53.4-134.1,62.4-196.9,27.2l-86.5,23.5l28.8-77.6c-41.4-63.9-34.1-150,21.8-205.9
		c64.3-64.3,168.5-64.4,232.9,0C436,192.7,435.9,297,371.6,361.2z"/>
	<path class="st0" d="M357.6,321.9c-15.2,15.6-59.8,44.2-138.9-38.7l-0.1-0.1c-82.8-79.1-54.2-123.7-38.7-138.9
		c4.1-3.9,9.7-5.8,15.3-5.4l7.5,0.4c6.2,0.5,11.6,4.4,14.1,10l14.9,35.4c2.3,5.7,1.4,12.2-2.4,17l-11,13.6c-2.1,2.5-2.4,6.1-0.7,8.9
		c4.5,7.5,14,22.2,26,34.2l0.1,0.1c12,12,26.7,21.5,34.2,26c2.8,1.7,6.4,1.4,8.9-0.7l13.6-11c4.8-3.8,11.3-4.8,17-2.4l35.4,14.9
		c5.6,2.4,9.5,7.8,10,14.1l0.4,7.5C363.3,312.2,361.5,317.8,357.6,321.9z"/>
</g>
</svg>
