<svg xmlns="http://www.w3.org/2000/svg" id="x" viewBox="0 0 1860.39 1951.91">
  <path d="m1098.92,1233.88c1.23-.4,2.03-1.23,2.83-2.03l21.56-21.53c2.43-2.43,4.06-6.09,4.06-9.75s-1.63-7.32-4.06-9.75c-5.29-4.89-13.84-4.89-19.1.4l-21.53,21.53c-2.46,2.43-4.06,6.09-4.06,9.75s1.6,7.32,4.06,9.75c4.46,4.06,10.95,4.89,16.24,1.63" style="fill:#fd3e81; stroke:#fd3e81; stroke-miterlimit: 10;"/>
  <path d="m1625.03,1613.74l101.15-22.76,132.83-30.08-119.02-66.61-85.31-47.95-53.64-30.05-111.4-62.25-9.25-5.19s-.1,0-.13-.03l-.67-.37-146.27-81.65-55.67-31.31-17.47-9.75-111.3-62.55,26.42,90.2,9.32,32.08,8.95,30.08,32.11,110.5,27.62,94.23,44.29,152.36,17.04,59.33,24.79,84.48,39.43,134.06,58.49-125.94,43.85-93.83,91.83,115.79,32.91,41.43,41.03-33.31,62.95-50.78,40.23-32.51-32.08-40.63-93.03-116.99Zm-10.98,200.27l-141.78-178.74-2.43-3.26-3.66,7.72-76,162.91-27.62-94.66-17.47-60.12-59.73-205.16-30.45-104.81-4.89-17.07-14.21-48.75,102.38,57.3,231.15,129.6,54.04,30.05,92.2,51.61-177.91,40.23-4.49.8,1.23,1.63,143.01,180.37-63.39,50.38Z" style="fill:#fd3e81; stroke:#fd3e81; stroke-miterlimit: 10;"/>
  <path d="m1120.45,1138.81c.8-.4,1.63-.8,2.03-1.63,2.83-2.43,4.46-6.09,4.46-9.75s-1.2-7.32-4.06-10.15l-21.13-21.13c-2.43-2.43-6.09-4.06-9.75-4.06s-7.29,1.63-9.75,4.06c-4.86,5.29-4.86,13.81.4,19.1l21.13,21.13c4.49,4.46,11.38,5.26,16.67,2.43" style="fill:#fd3e81; stroke:#fd3e81; stroke-miterlimit: 10;"/>
  <path d="m1263.85,1689.29c-7.72,3.66-15.44,6.92-23.16,10.15-45.09,18.7-91,33.34-138.12,43.89,45.48-41.43,87.74-98.32,125.94-170.63-8.52-28.85-17.47-57.7-25.99-86.54-5.29,11.78-10.58,23.59-15.87,34.94-67.01,138.55-153.96,224.26-242.13,240.53v-454.21c75.56.4,144.24,2.86,207.19,6.09-2.83-10.15-5.69-20.3-8.52-30.88-3.26-10.15-6.09-20.7-8.52-31.28-58.53-2.83-121.48-4.86-190.16-5.29v-303.05h364.44c-1.63,91-10.18,179.58-24.79,263.26,9.75,4.46,19.5,9.35,28.85,14.21,9.32,4.49,18.27,8.95,27.62,13.41,17.47-93.83,27.62-192.15,29.25-291.27h396.52c-4.89,136.09-41.46,266.49-106.44,383.11-41.46-12.61-116.62-31.31-229.55-47.55,84.11,42.26,168.2,84.51,252.28,127.57,230.75-357.52,185.27-840.55-132.83-1148.09C1372.32,85.81,1143.2.5,914.48.5S437.14,93.53,257.96,277.97c-351,361.98-342.05,939.67,20.33,1290.27,177.51,171.42,406.63,257.14,635.39,257.14,125.51,0,251.05-25.99,368.04-77.16-2.43-8.55-5.26-16.67-7.72-25.19-3.23-11.38-6.89-22.36-10.15-33.74m502.13-806.81h-396.48c-1.63-110.5-13.41-220.2-35.34-323.78,168.16-17.87,273.41-43.89,325.81-59.33,64.98,116.19,101.55,247.02,106.01,383.11m-258.37-581.35c45.52,43.85,85.31,92.2,119.45,143.81-54.44,15.04-154.39,37.37-306.75,53.64-22.33-87.34-51.97-168.99-88.94-240.93-38.6-74.73-82.09-133.23-128.4-175.48,151.13,34.1,290.88,108.87,404.64,218.97M944.96,64.39c33.57,6.16,67.15,22.33,99.52,48.25,48.75,38.56,93.43,97.09,132.86,173.05,33.31,64.58,60.92,138.95,82.05,218.97-88.97,7.72-193.78,13.01-314.43,13.81V64.39Zm-.43,515c127.17-.8,236.44-6.49,329.07-14.61,21.13,99.12,33.31,206.36,34.94,317.69h-364.01v-303.09ZM301.85,320.22c81.65-84.51,177.95-149.5,285.58-194.22,45.09-18.67,91-33.31,138.12-43.85-50.38,45.88-97.49,111.3-138.52,195.81-32.51,67.01-58.89,141.78-78.82,220.6-152.32-16.27-251.88-38.6-306.31-53.64,28.85-43.89,62.15-85.71,99.95-124.71m-133.26,179.14c52.41,15.44,157.22,41.46,325.81,59.33-21.93,103.58-33.71,213.28-35.34,323.78H62.15c4.46-136.09,41.43-266.52,106.44-383.11m-106.44,444.03h396.52c1.63,110.5,13.41,220.2,35.34,323.78-168.2,17.9-273.41,43.89-325.81,59.33-64.62-116.19-101.58-246.99-106.04-383.11m258.37,580.95c-45.48-43.89-85.31-92.2-119.42-143.81,54.44-15.04,154.36-37.37,306.71-53.64,22.36,87.34,52.01,168.99,88.97,241.33,38.6,74.73,82.05,133.26,128.37,175.08-151.13-34.11-290.88-108.87-404.64-218.97m563.08,237.27c-33.71-6.12-67.45-22.36-99.95-48.35-48.75-38.6-93.43-97.09-132.43-173.09-33.31-64.58-60.92-138.92-82.05-218.97,88.97-7.72,193.78-12.98,314.43-13.81v454.21Zm0-515.14c-127.17.8-236.44,6.49-329.07,14.61-21.13-99.12-33.31-206.36-34.94-317.69h364.01v303.09Zm0-364.01h-364.01c2.03-110.9,14.21-218.57,35.34-317.69,92.63,8.12,201.94,13.81,328.67,14.61v303.09Zm0-364.01c-121.05-.8-225.46-6.09-314.43-13.81,19.1-72.3,43.45-139.75,72.3-200.27,67.05-138.55,153.96-224.26,242.13-240.53v454.61Z" style="fill:#fd3e81; stroke:#fd3e81; stroke-miterlimit: 10;"/>
  <path d="m1198.86,1096.57l-21.53,21.53c-2.43,2.43-4.06,6.09-4.06,9.75s1.63,7.32,4.06,9.75c4.46,4.06,10.98,4.89,16.24,1.63,1.23-.4,2.03-1.23,2.86-2.03l21.53-21.53c2.43-2.43,4.06-6.09,4.06-9.75.4-3.66-1.23-7.32-4.06-9.75-5.29-4.89-13.81-4.89-19.1.4" style="fill:#fd3e81; stroke:#fd3e81; stroke-miterlimit: 10;"/>
  <path d="m1058.29,1154.66c-2.43,2.83-4.06,6.49-3.66,10.15.4,7.32,6.49,12.61,13.81,12.61h30.48c2.43,0,4.86-.83,6.92-1.63,1.2-.4,2.03-1.23,2.83-2.03,2.86-2.86,4.06-6.49,4.06-10.58-.8-6.89-6.89-12.58-14.21-12.58h-30.48c-3.66,0-7.32,1.63-9.75,4.06" style="fill:#fd3e81; stroke:#fd3e81; stroke-miterlimit: 10;"/>
  <path d="m1149.3,1068.13c-6.92.4-12.61,6.49-12.61,13.81v30.08c0,7.29,5.69,13.41,12.61,13.81,2.83.4,5.29-.4,7.72-1.63,1.23-.4,2.03-1.23,2.83-2.03,2.86-2.86,4.09-6.09,4.09-9.75l-.43-30.88c0-3.66-1.2-7.32-4.06-9.75-2.83-2.43-6.49-4.06-10.15-3.66" style="fill:#fd3e81; stroke:#fd3e81; stroke-miterlimit: 10;"/>
</svg>