<?xml version="1.0" encoding="utf-8"?>
<!-- Generator: Adobe Illustrator 24.3.0, SVG Export Plug-In . SVG Version: 6.00 Build 0)  -->
<svg version="1.1" id="Layer_1" xmlns="http://www.w3.org/2000/svg" xmlns:xlink="http://www.w3.org/1999/xlink" x="0px" y="0px"
	 viewBox="0 0 1000 1000" style="enable-background:new 0 0 1000 1000;" xml:space="preserve">
<style type="text/css">
	.st0{fill:#DCF8FF;}
	.st1{fill:#5A216E;}
	.st2{fill:url(#SVGID_1_);}
	.st3{fill:#2D3E50;}
	.st4{fill:#FD3E81;}
	.st5{fill:url(#SVGID_2_);}
	.st6{fill:url(#SVGID_3_);}
</style>
<rect class="st0" width="1000" height="1000"/>
<g>
	<g>
		<path class="st1" d="M628.453,548.569l4.256-3.271l80.885-62.364L628.453,548.569z M776.089,353.159
			c1.689-1.57,2.534-4.809,2.188-8.296c0-0.043-0.011-0.076-0.011-0.119c-0.163,1.549-0.585,2.935-1.213,4.007
			c0,0.011-0.011,0.011-0.011,0.011c-0.314,0.671-0.682,1.3-1.105,1.863c-1.224,1.538-2.805,2.675-4.744,3.369l6.455,6.022
			c-1.69-1.581-2.827-3.542-3.369-5.632C774.995,354.058,775.612,353.636,776.089,353.159z M786.421,368.214l-1.993-1.863h-0.011
			c0,0.011,0.011,0.011,0.011,0.011l0.401,0.379l35.926,33.576L786.421,368.214z M786.573,335.754
			c-2.816-2.643-6.574-3.639-10.116-3.054c0.585,1.375,1.072,2.783,1.419,4.246c0.379,1.7,0.563,3.379,0.563,4.993
			c4.387-3.444,10.712-3.401,15.044,0.282L786.573,335.754z M724.956,733.679L573.097,621.352l-0.011,0.011l116.453,86.138
			l35.428,26.2L724.956,733.679z M565.884,596.81c-0.195,0.141-0.368,0.282-0.552,0.444l0.552-0.433l46.107-35.547L565.884,596.81z
			 M461.745,630.451l-11.817-9.098l-0.011,0.011l11.795,9.087c2.058,1.592,4.181,3.065,6.347,4.43
			C465.904,633.505,463.792,632.043,461.745,630.451z M380.016,567.447L195.783,425.412l179.954,138.754l54.555,42.067l0.011-0.011
			L380.016,567.447z M244.89,342.209c-0.108-0.097-0.217-0.184-0.325-0.271c0,0.921,0.065,1.82,0.195,2.675
			c0.065-0.596,0.162-1.181,0.271-1.766C244.977,342.643,244.923,342.426,244.89,342.209z M226.705,344.841l-50.851,47.536
			l50.927-47.591v-0.011L226.705,344.841z M172.075,399.505c-0.043,0.271-0.065,0.552-0.087,0.834
			c0.033-0.281,0.054-0.563,0.097-0.834c0.011-0.141,0.032-0.282,0.054-0.412C172.107,399.223,172.085,399.364,172.075,399.505z"/>
		<path class="st1" d="M851.016,400.338c-0.033-0.281-0.054-0.563-0.098-0.834c-0.011-0.141-0.033-0.282-0.054-0.412
			c-0.021-0.141-0.054-0.271-0.086-0.411c-0.065-0.249-0.108-0.498-0.184-0.747c-0.011-0.033-0.011-0.054-0.021-0.087
			c-0.076-0.26-0.173-0.509-0.249-0.747c0-0.011,0-0.011,0-0.011c-0.043-0.13-0.108-0.26-0.152-0.379
			c-0.065-0.13-0.108-0.249-0.162-0.379c-0.108-0.217-0.195-0.433-0.314-0.65c0-0.011-0.011-0.011-0.011-0.022
			c-0.033-0.076-0.076-0.152-0.119-0.227c-0.206-0.358-0.411-0.704-0.65-1.04c-0.119-0.173-0.238-0.336-0.368-0.498
			c-0.011-0.011-0.022-0.033-0.033-0.043c-0.119-0.163-0.249-0.325-0.39-0.477c-0.163-0.195-0.347-0.379-0.52-0.563
			c-0.152-0.152-0.303-0.292-0.455-0.433l-50.84-47.515l-0.087-0.076v-0.011l-2.74-2.556c-4.332-3.682-10.657-3.726-15.044-0.282
			c0,0.747-0.043,1.484-0.13,2.188c-0.022,0.162-0.043,0.325-0.065,0.488c0.011,0.043,0.011,0.086,0.022,0.13
			c0,0.043,0.011,0.076,0.011,0.119c0.346,3.487-0.498,6.726-2.188,8.296c-0.477,0.477-1.094,0.899-1.809,1.224
			c0.542,2.09,1.679,4.051,3.369,5.632l6.769,6.336c0,0.011,0.011,0.011,0.011,0.011s0,0,0-0.011l1.993,1.863l34.334,32.103
			l-89.008,68.624l-18.152,13.994l-80.885,62.364l-4.256,3.271l-0.108,0.087c-0.032,0.022-0.065,0.054-0.097,0.086l-16.257,12.531
			l-46.107,35.547l-0.552,0.433h-0.011l-18.596,14.329c-20.741,15.997-49.714,15.997-70.455,0l-18.596-14.329l-0.552-0.433
			l-46.107-35.547l-16.355-12.618l-0.108-0.087l-4.257-3.271l-74.018-57.068l-17.882-13.788l-96.145-74.126l34.334-32.103
			l3.542-3.314l5.231-4.885c1.69-1.581,2.827-3.542,3.368-5.632c-0.715-0.325-1.332-0.747-1.809-1.224
			c-1.69-1.57-2.534-4.809-2.188-8.296c0.011-0.087,0.022-0.163,0.033-0.249c-0.13-0.856-0.195-1.755-0.195-2.675
			c-4.387-3.444-10.712-3.401-15.044,0.282c-0.141,0.13-0.292,0.26-0.433,0.39l-1.982,1.863l-0.325,0.303v0.011l-50.927,47.591
			c-0.152,0.141-0.303,0.282-0.455,0.433c-0.033,0.043-0.076,0.086-0.119,0.13c-0.108,0.098-0.206,0.206-0.303,0.325
			c-0.033,0.032-0.065,0.065-0.098,0.108c-0.141,0.152-0.271,0.314-0.39,0.477c-0.011,0.011-0.022,0.032-0.032,0.043
			c-0.13,0.162-0.249,0.325-0.368,0.498c-0.238,0.336-0.444,0.682-0.65,1.04c-0.043,0.087-0.087,0.162-0.13,0.249
			c-0.119,0.217-0.206,0.433-0.314,0.65c-0.054,0.13-0.097,0.249-0.162,0.379c-0.228,0.542-0.412,1.105-0.542,1.69
			c-0.043,0.141-0.065,0.282-0.098,0.422c-0.022,0.087-0.043,0.173-0.054,0.271c-0.022,0.13-0.043,0.271-0.054,0.412
			c-0.043,0.271-0.065,0.552-0.097,0.834c-0.022,0.271-0.033,0.553-0.033,0.834v340.944c0,1.322,0.033,2.632,0.087,3.943
			c0.931,19.203,8.556,37.366,21.716,51.533l0.043,0.054c0.076,0.065,0.13,0.13,0.195,0.195
			c13.376,14.253,31.507,23.2,50.786,25.268c0.379,0.043,0.769,0.076,1.148,0.108c0.401,0.043,0.801,0.086,1.202,0.108
			c2.08,0.163,4.181,0.249,6.282,0.249h39.836l23.763-16.225l1.722-1.18l9.455-6.423h-74.776c-11.535,0-22.474-3.314-31.799-9.531
			l76.433-56.537l151.859-112.327l0.011,0.011l0.011-0.011l11.817,9.098c2.047,1.592,4.159,3.054,6.314,4.43
			c0.726,0.455,1.451,0.899,2.188,1.332c0.986,0.574,1.971,1.126,2.968,1.657c0.996,0.531,2.004,1.04,3.022,1.516
			c1.007,0.487,2.025,0.953,3.044,1.397c2.567,1.105,5.188,2.069,7.831,2.892c1.051,0.336,2.112,0.639,3.173,0.932
			c4.278,1.148,8.621,1.938,12.997,2.383c1.094,0.108,2.188,0.195,3.282,0.26c1.646,0.097,3.293,0.151,4.939,0.151
			s3.293-0.054,4.939-0.151c1.094-0.065,2.188-0.152,3.282-0.26c4.376-0.444,8.719-1.246,12.997-2.383
			c1.061-0.292,2.123-0.596,3.173-0.932c2.643-0.834,5.264-1.798,7.831-2.892c1.018-0.444,2.036-0.91,3.044-1.397
			c1.018-0.487,2.025-0.997,3.022-1.516c0.996-0.531,1.982-1.083,2.968-1.657c2.924-1.733,5.762-3.639,8.502-5.762l11.816-9.098
			l0.011,0.011l0.011-0.011l151.859,112.327l76.433,56.537c-9.325,6.217-20.264,9.531-31.799,9.531H422.397l-4.69,23.828h351.872
			c2.112,0,4.202-0.076,6.293-0.249c0.401-0.022,0.801-0.065,1.202-0.108c0.379-0.033,0.769-0.065,1.148-0.108
			c19.279-2.069,37.41-11.015,50.786-25.268c0.065-0.065,0.119-0.13,0.195-0.195l0.043-0.054
			c13.16-14.167,20.785-32.33,21.716-51.533c0.054-1.31,0.087-2.621,0.087-3.943V401.183
			C851.049,400.902,851.038,400.62,851.016,400.338z M430.292,606.233L279.246,717.964l-74.473,55.075
			c-5.849-9.185-8.99-19.864-8.99-30.922V425.412l184.232,142.035l50.288,38.774L430.292,606.233z M827.221,742.116
			c0,11.058-3.141,21.738-8.99,30.922l-74.473-55.075l-36.522-27.023l-114.525-84.708l-0.011-0.011l50.287-38.774l184.233-142.035
			V742.116z"/>
	</g>
	<path class="st1" d="M541.592,378.348h50.911c8.575,0,15.526-6.951,15.526-15.526v-50.911c0-8.575-6.951-15.526-15.526-15.526
		h-50.911c-8.575,0-15.526,6.951-15.526,15.526v50.911C526.066,371.397,533.018,378.348,541.592,378.348z"/>
	<path class="st1" d="M430.505,378.348h50.911c8.575,0,15.526-6.951,15.526-15.526v-50.911c0-8.575-6.951-15.526-15.526-15.526
		h-50.911c-8.575,0-15.526,6.951-15.526,15.526v50.911C414.979,371.397,421.93,378.348,430.505,378.348z"/>
	<path class="st1" d="M541.592,479.85h50.911c8.575,0,15.526-6.951,15.526-15.526v-50.911c0-8.575-6.951-15.526-15.526-15.526
		h-50.911c-8.575,0-15.526,6.951-15.526,15.526v50.911C526.066,472.898,533.018,479.85,541.592,479.85z"/>
	<path class="st1" d="M430.505,479.85h50.911c8.575,0,15.526-6.951,15.526-15.526v-50.911c0-8.575-6.951-15.526-15.526-15.526
		h-50.911c-8.575,0-15.526,6.951-15.526,15.526v50.911C414.979,472.898,421.93,479.85,430.505,479.85z"/>
	<linearGradient id="SVGID_1_" gradientUnits="userSpaceOnUse" x1="511.5027" y1="561.4967" x2="511.5027" y2="75.2231">
		<stop  offset="0" style="stop-color:#5A216E"/>
		<stop  offset="0.2222" style="stop-color:#5D226E"/>
		<stop  offset="0.3796" style="stop-color:#66236F"/>
		<stop  offset="0.517" style="stop-color:#762671"/>
		<stop  offset="0.643" style="stop-color:#8C2A74"/>
		<stop  offset="0.7612" style="stop-color:#A82F77"/>
		<stop  offset="0.8735" style="stop-color:#CB357B"/>
		<stop  offset="0.9793" style="stop-color:#F43C80"/>
		<stop  offset="1" style="stop-color:#FD3E81"/>
	</linearGradient>
	<path class="st2" d="M796.299,341.657c-0.033-0.585-0.076-1.18-0.141-1.776c-1.928-17.069-12.737-29.925-21.868-39.305
		c-0.26-0.336-8.578-8.805-21.878-22.355c-3.206-3.26-6.693-6.812-10.419-10.614l-2.123-2.155L632.472,156.222v0.022
		c-46.865-47.699-87.361-88.932-87.361-88.932c-10.214-10.213-21.402-15.022-32.937-14.665
		c-17.903,0.726-29.915,14.546-30.402,15.152l-88.965,88.195v-43.02c0-4.917-4.094-9.011-9.011-9.011h-82.574
		c-4.939,0-9.011,4.094-9.011,9.011v142.74l-32.287,32.005c-2.274,2.156-4.701,4.452-7.083,6.607
		c-10.116,9.26-21.651,19.831-25.138,35.341c-0.921,4.062-1.224,8.091-0.931,11.925v0.011c0.076,0.964,0.184,1.928,0.336,2.87
		c0.791,5.058,2.664,9.694,5.535,13.549c1.581,2.112,3.444,3.975,5.534,5.534c0.628,0.477,1.278,0.921,1.95,1.343
		c4.062,2.545,8.838,4.105,14.037,4.527c12.488,0.986,24.38-3.823,34.475-13.918l9.759-9.737v139.653l17.882,13.788V327.74
		l194.089-194.078l0.065,0.054l0.054-0.054l203.111,198.28v159.982l18.152-14.015V350.582c9.867,9.856,22.117,19.701,37.258,19.701
		c1.928,0,3.845-0.119,5.881-0.477c3.477-0.552,6.704-1.744,9.531-3.455c0,0.011,0.011,0.011,0.011,0.011s0,0,0-0.011
		c0.693-0.411,1.354-0.856,1.993-1.321c0.715-0.542,1.408-1.116,2.058-1.722c4.69-4.506,7.495-11.177,7.831-18.445
		c0.033-0.791,0.043-1.592,0.022-2.394L796.299,341.657z M310.243,121.997h64.4v51.999l-64.4,63.837V121.997z M770.164,352.109
		h-0.022c-11.708,1.029-22.712-10.896-32.503-21.359c-2.524-2.783-5.047-5.285-7.332-7.582L516.625,114.545
		c-2.664-2.588-6.596-3.173-9.878-1.766c-0.054,0.033-0.119,0.065-0.173,0.087c-0.195,0.087-0.39,0.195-0.574,0.282
		c-0.444,0.249-0.888,0.552-1.3,0.899c-0.249,0.173-0.477,0.39-0.693,0.617L275.91,342.762c-0.358,0.336-0.715,0.693-1.083,1.04
		c-0.358,0.336-0.736,0.65-1.094,0.975c-0.314,0.282-0.639,0.552-0.953,0.812c-5.502,4.473-11.329,6.444-17.308,5.946
		c-1.343-0.098-2.567-0.336-3.661-0.726c-1.939-0.693-3.52-1.83-4.755-3.368c-0.942-1.267-1.625-2.838-2.025-4.592
		c-0.054-0.206-0.108-0.422-0.141-0.639c-0.498-2.567-0.433-5.48,0.238-8.448c0.346-1.462,0.823-2.87,1.419-4.246
		c3.455-8.091,10.723-14.762,18.434-21.835c2.632-2.426,5.156-4.701,7.56-7.105L493.913,81.002c0.13-0.227,1.44-1.441,1.549-1.549
		c0,0,1.267-1.408,3.423-3.098c2.989-2.383,7.755-5.307,13.333-5.751c0.303-0.011,0.607-0.032,0.921-0.054
		c0.444-0.011,0.877,0,1.332,0.043c5.773,0.303,12,3.303,18.022,9.347c0,0,137.053,139.49,199.147,202.677
		c18.066,18.391,29.785,30.316,29.915,30.456c2.285,2.361,4.712,4.971,6.975,7.82c4.278,5.34,8.026,11.481,9.358,18.315
		c0.162,0.812,0.292,1.635,0.379,2.469c0.086,0.834,0.097,1.657,0.043,2.448c-0.011,0.206-0.022,0.412-0.043,0.617
		c-0.163,1.549-0.585,2.935-1.213,4.007c0,0.011-0.011,0.011-0.011,0.011c-0.271,0.477-0.596,0.877-0.953,1.213
		c-0.477,0.477-1.094,0.899-1.819,1.224c-0.748,0.336-1.592,0.574-2.502,0.693c-0.282,0.054-0.574,0.098-0.856,0.13
		C770.662,352.055,770.413,352.076,770.164,352.109z"/>
	<path class="st4" d="M433.833,707.111l-5.989,4.115l-5.329,3.628l-16.983,11.643l-44.645,30.424l-0.206,0.119
		c0.011,0.022-0.033,0.022-0.033,0.022l-2.827,1.928l-26.438,18.012l-7.56,5.166l-12.77,8.741l-3.585,2.459l-9.315,6.379
		l-16.723,11.448l-18.131,12.38l-18.185,12.423l43.518,5.859l33.132,4.419l-26.525,40.236l-9.141,13.961l13.852,9.293l21.673,14.503
		l14.123,9.531l9.39-14.253l26.178-39.814l16.755,28.875l22.398,38.763l8.827-44.168l5.545-27.846l3.769-19.539l1.278-6.455
		l5.069-25.788l0.282-1.43l3.238-16.517l1.17-5.881l5.004-25.192l7.159-36.403l2.004-9.91l2.069-10.571l0.184-0.91l5.74-28.821
		L433.833,707.111z M417.705,823.575l-1.029,5.199l-4.029,20.449l-1.224,6.239l-2.664,13.56l-6.152,31.193l-25.474-43.93
		l-3.607-6.217l-1.386-2.383l-0.682,1.137l-3.422,5.199l-37.009,56.266l-21.781-14.362l35.276-53.689l5.48-8.339l0.357-0.553
		l-1.484-0.13l-16.972-2.285l-41.309-5.545l2.654-1.809l23.763-16.225l1.722-1.18l9.455-6.423l7.029-4.776l2.08-1.419l68.462-46.822
		l2.762-1.885l28.485-19.452l-3.173,16.073l-1.083,5.61l-1.235,6.271l-5.545,28.269l-3.574,18.131L417.705,823.575z"/>
	<line class="st1" x1="632.471" y1="156.222" x2="618.694" y2="142.206"/>
</g>
</svg>
