<?xml version="1.0" encoding="utf-8"?>
<!-- Generator: Adobe Illustrator 24.3.0, SVG Export Plug-In . SVG Version: 6.00 Build 0)  -->
<svg version="1.1" id="Layer_1" xmlns="http://www.w3.org/2000/svg" xmlns:xlink="http://www.w3.org/1999/xlink" x="0px" y="0px"
	 viewBox="0 0 2185.003 1392.686" style="enable-background:new 0 0 2185.003 1392.686;" xml:space="preserve">
<style type="text/css">
	.st0{fill:#5A216E;}
	.st1{fill:url(#SVGID_1_);}
	.st2{fill:#2D3E50;}
	.st3{fill:#FD3E81;}
	.st4{fill:none;}
	.st5{fill:url(#SVGID_2_);}
	.st6{fill:url(#SVGID_3_);}
	.st7{fill:url(#SVGID_4_);}
	.st8{fill:url(#SVGID_5_);}
	.st9{fill:url(#SVGID_6_);}
	.st10{fill:url(#SVGID_7_);}
</style>
<g>
	<path class="st0" d="M582.992,518.58l3.93-3.02l74.68-57.58L582.992,518.58z M719.302,338.16c1.56-1.45,2.34-4.44,2.02-7.66
		c0-0.04-0.01-0.07-0.01-0.11c-0.15,1.43-0.54,2.71-1.12,3.7c0,0.01-0.01,0.01-0.01,0.01c-0.29,0.62-0.63,1.2-1.02,1.72
		c-1.13,1.42-2.59,2.47-4.38,3.11l5.96,5.56c-1.56-1.46-2.61-3.27-3.11-5.2C718.292,338.99,718.862,338.6,719.302,338.16z
		 M728.842,352.06l-1.84-1.72h-0.01c0,0.01,0.01,0.01,0.01,0.01l0.37,0.35l33.17,31L728.842,352.06z M728.982,322.09
		c-2.6-2.44-6.07-3.36-9.34-2.82c0.54,1.27,0.99,2.57,1.31,3.92c0.35,1.57,0.52,3.12,0.52,4.61c4.05-3.18,9.89-3.14,13.89,0.26
		L728.982,322.09z M672.092,689.49l-140.21-103.71l-0.01,0.01l107.52,79.53l32.71,24.19L672.092,689.49z M525.222,563.12
		c-0.18,0.13-0.34,0.26-0.51,0.41l0.51-0.4l42.57-32.82L525.222,563.12z M429.072,594.18l-10.91-8.4l-0.01,0.01l10.89,8.39
		c1.9,1.47,3.86,2.83,5.86,4.09C432.912,597,430.962,595.65,429.072,594.18z M353.612,536.01l-170.1-131.14l166.15,128.11
		l50.37,38.84l0.01-0.01L353.612,536.01z M228.852,328.05c-0.1-0.09-0.2-0.17-0.3-0.25c0,0.85,0.06,1.68,0.18,2.47
		c0.06-0.55,0.15-1.09,0.25-1.63C228.932,328.45,228.882,328.25,228.852,328.05z M212.062,330.48l-46.95,43.89l47.02-43.94v-0.01
		L212.062,330.48z M161.622,380.95c-0.04,0.25-0.06,0.51-0.08,0.77c0.03-0.26,0.05-0.52,0.09-0.77c0.01-0.13,0.03-0.26,0.05-0.38
		C161.652,380.69,161.632,380.82,161.622,380.95z"/>
	<path class="st0" d="M788.482,381.72c-0.03-0.26-0.05-0.52-0.09-0.77c-0.01-0.13-0.03-0.26-0.05-0.38
		c-0.02-0.13-0.05-0.25-0.08-0.38c-0.06-0.23-0.1-0.46-0.17-0.69c-0.01-0.03-0.01-0.05-0.02-0.08c-0.07-0.24-0.16-0.47-0.23-0.69
		c0-0.01,0-0.01,0-0.01c-0.04-0.12-0.1-0.24-0.14-0.35c-0.06-0.12-0.1-0.23-0.15-0.35c-0.1-0.2-0.18-0.4-0.29-0.6
		c0-0.01-0.01-0.01-0.01-0.02c-0.03-0.07-0.07-0.14-0.11-0.21c-0.19-0.33-0.38-0.65-0.6-0.96c-0.11-0.16-0.22-0.31-0.34-0.46
		c-0.01-0.01-0.02-0.03-0.03-0.04c-0.11-0.15-0.23-0.3-0.36-0.44c-0.15-0.18-0.32-0.35-0.48-0.52c-0.14-0.14-0.28-0.27-0.42-0.4
		l-46.94-43.87l-0.08-0.07v-0.01l-2.53-2.36c-4-3.4-9.84-3.44-13.89-0.26c0,0.69-0.04,1.37-0.12,2.02c-0.02,0.15-0.04,0.3-0.06,0.45
		c0.01,0.04,0.01,0.08,0.02,0.12c0,0.04,0.01,0.07,0.01,0.11c0.32,3.22-0.46,6.21-2.02,7.66c-0.44,0.44-1.01,0.83-1.67,1.13
		c0.5,1.93,1.55,3.74,3.11,5.2l6.25,5.85c0,0.01,0.01,0.01,0.01,0.01s0,0,0-0.01l1.84,1.72l31.7,29.64l-82.18,63.36l-16.76,12.92
		l-74.68,57.58l-3.93,3.02l-0.1,0.08c-0.03,0.02-0.06,0.05-0.09,0.08l-15.01,11.57l-42.57,32.82l-0.51,0.4h-0.01l-17.17,13.23
		c-19.15,14.77-45.9,14.77-65.05,0l-17.17-13.23l-0.51-0.4l-42.57-32.82l-15.1-11.65l-0.1-0.08l-3.93-3.02l-68.34-52.69
		l-16.51-12.73l-88.77-68.44l31.7-29.64l3.27-3.06l4.83-4.51c1.56-1.46,2.61-3.27,3.11-5.2c-0.66-0.3-1.23-0.69-1.67-1.13
		c-1.56-1.45-2.34-4.44-2.02-7.66c0.01-0.08,0.02-0.15,0.03-0.23c-0.12-0.79-0.18-1.62-0.18-2.47c-4.05-3.18-9.89-3.14-13.89,0.26
		c-0.13,0.12-0.27,0.24-0.4,0.36l-1.83,1.72l-0.3,0.28v0.01l-47.02,43.94c-0.14,0.13-0.28,0.26-0.42,0.4
		c-0.03,0.04-0.07,0.08-0.11,0.12c-0.1,0.09-0.19,0.19-0.28,0.3c-0.03,0.03-0.06,0.06-0.09,0.1c-0.13,0.14-0.25,0.29-0.36,0.44
		c-0.01,0.01-0.02,0.03-0.03,0.04c-0.12,0.15-0.23,0.3-0.34,0.46c-0.22,0.31-0.41,0.63-0.6,0.96c-0.04,0.08-0.08,0.15-0.12,0.23
		c-0.11,0.2-0.19,0.4-0.29,0.6c-0.05,0.12-0.09,0.23-0.15,0.35c-0.21,0.5-0.38,1.02-0.5,1.56c-0.04,0.13-0.06,0.26-0.09,0.39
		c-0.02,0.08-0.04,0.16-0.05,0.25c-0.02,0.12-0.04,0.25-0.05,0.38c-0.04,0.25-0.06,0.51-0.09,0.77c-0.02,0.25-0.03,0.51-0.03,0.77
		v314.79c0,1.22,0.03,2.43,0.08,3.64c0.86,17.73,7.9,34.5,20.05,47.58l0.04,0.05c0.07,0.06,0.12,0.12,0.18,0.18
		c12.35,13.16,29.09,21.42,46.89,23.33c0.35,0.04,0.71,0.07,1.06,0.1c0.37,0.04,0.74,0.08,1.11,0.1c1.92,0.15,3.86,0.23,5.8,0.23
		h36.78l21.94-14.98l1.59-1.09l8.73-5.93h-69.04c-10.65,0-20.75-3.06-29.36-8.8l70.57-52.2l140.21-103.71l0.01,0.01l0.01-0.01
		l10.91,8.4c1.89,1.47,3.84,2.82,5.83,4.09c0.67,0.42,1.34,0.83,2.02,1.23c0.91,0.53,1.82,1.04,2.74,1.53
		c0.92,0.49,1.85,0.96,2.79,1.4c0.93,0.45,1.87,0.88,2.81,1.29c2.37,1.02,4.79,1.91,7.23,2.67c0.97,0.31,1.95,0.59,2.93,0.86
		c3.95,1.06,7.96,1.79,12,2.2c1.01,0.1,2.02,0.18,3.03,0.24c1.52,0.09,3.04,0.14,4.56,0.14s3.04-0.05,4.56-0.14
		c1.01-0.06,2.02-0.14,3.03-0.24c4.04-0.41,8.05-1.15,12-2.2c0.98-0.27,1.96-0.55,2.93-0.86c2.44-0.77,4.86-1.66,7.23-2.67
		c0.94-0.41,1.88-0.84,2.81-1.29c0.94-0.45,1.87-0.92,2.79-1.4c0.92-0.49,1.83-1,2.74-1.53c2.7-1.6,5.32-3.36,7.85-5.32l10.91-8.4
		l0.01,0.01l0.01-0.01l140.21,103.71l70.57,52.2c-8.61,5.74-18.71,8.8-29.36,8.8h-320.56l-4.33,22h324.88
		c1.95,0,3.88-0.07,5.81-0.23c0.37-0.02,0.74-0.06,1.11-0.1c0.35-0.03,0.71-0.06,1.06-0.1c17.8-1.91,34.54-10.17,46.89-23.33
		c0.06-0.06,0.11-0.12,0.18-0.18l0.04-0.05c12.15-13.08,19.19-29.85,20.05-47.58c0.05-1.21,0.08-2.42,0.08-3.64V382.5
		C788.512,382.24,788.502,381.98,788.482,381.72z M400.032,571.82l-139.46,103.16l-68.76,50.85c-5.4-8.48-8.3-18.34-8.3-28.55
		V404.87l170.1,131.14l46.43,35.8L400.032,571.82z M766.512,697.28c0,10.21-2.9,20.07-8.3,28.55l-68.76-50.85l-33.72-24.95
		l-105.74-78.21l-0.01-0.01l46.43-35.8l170.1-131.14V697.28z"/>
</g>
<path class="st0" d="M503.985,361.417h44.624c8.575,0,15.526-6.951,15.526-15.526v-44.624c0-8.575-6.951-15.526-15.526-15.526
	h-44.624c-8.575,0-15.526,6.951-15.526,15.526v44.624C488.459,354.466,495.41,361.417,503.985,361.417z"/>
<path class="st0" d="M401.419,361.417h44.624c8.575,0,15.526-6.951,15.526-15.526v-44.624c0-8.575-6.951-15.526-15.526-15.526
	h-44.624c-8.575,0-15.526,6.951-15.526,15.526v44.624C385.893,354.466,392.844,361.417,401.419,361.417z"/>
<path class="st0" d="M503.985,455.132h44.624c8.575,0,15.526-6.951,15.526-15.526v-44.624c0-8.575-6.951-15.526-15.526-15.526
	h-44.624c-8.575,0-15.526,6.951-15.526,15.526v44.624C488.459,448.181,495.41,455.132,503.985,455.132z"/>
<path class="st0" d="M401.419,455.132h44.624c8.575,0,15.526-6.951,15.526-15.526v-44.624c0-8.575-6.951-15.526-15.526-15.526
	h-44.624c-8.575,0-15.526,6.951-15.526,15.526v44.624C385.893,448.181,392.844,455.132,401.419,455.132z"/>
<linearGradient id="SVGID_1_" gradientUnits="userSpaceOnUse" x1="475.0127" y1="530.5161" x2="475.0127" y2="81.5446">
	<stop  offset="0" style="stop-color:#5A216E"/>
	<stop  offset="0.2222" style="stop-color:#5D226E"/>
	<stop  offset="0.3796" style="stop-color:#66236F"/>
	<stop  offset="0.517" style="stop-color:#762671"/>
	<stop  offset="0.643" style="stop-color:#8C2A74"/>
	<stop  offset="0.7612" style="stop-color:#A82F77"/>
	<stop  offset="0.8735" style="stop-color:#CB357B"/>
	<stop  offset="0.9793" style="stop-color:#F43C80"/>
	<stop  offset="1" style="stop-color:#FD3E81"/>
</linearGradient>
<path class="st1" d="M737.962,327.54c-0.03-0.54-0.07-1.09-0.13-1.64c-1.78-15.76-11.76-27.63-20.19-36.29
	c-0.24-0.31-7.92-8.13-20.2-20.64c-2.96-3.01-6.18-6.29-9.62-9.8l-1.96-1.99l-99.16-100.85v0.02
	c-43.27-44.04-80.66-82.11-80.66-82.11c-9.43-9.43-19.76-13.87-30.41-13.54c-16.53,0.67-27.62,13.43-28.07,13.99l-82.14,81.43V116.4
	c0-4.54-3.78-8.32-8.32-8.32h-76.24c-4.56,0-8.32,3.78-8.32,8.32v131.79l-29.81,29.55c-2.1,1.99-4.34,4.11-6.54,6.1
	c-9.34,8.55-19.99,18.31-23.21,32.63c-0.85,3.75-1.13,7.47-0.86,11.01v0.01c0.07,0.89,0.17,1.78,0.31,2.65
	c0.73,4.67,2.46,8.95,5.11,12.51c1.46,1.95,3.18,3.67,5.11,5.11c0.58,0.44,1.18,0.85,1.8,1.24c3.75,2.35,8.16,3.79,12.96,4.18
	c11.53,0.91,22.51-3.53,31.83-12.85l9.01-8.99v128.94l16.51,12.73V314.69l179.2-179.19l0.06,0.05l0.05-0.05l187.53,183.07v147.71
	l16.76-12.94V335.78c9.11,9.1,20.42,18.19,34.4,18.19c1.78,0,3.55-0.11,5.43-0.44c3.21-0.51,6.19-1.61,8.8-3.19
	c0,0.01,0.01,0.01,0.01,0.01s0,0,0-0.01c0.64-0.38,1.25-0.79,1.84-1.22c0.66-0.5,1.3-1.03,1.9-1.59c4.33-4.16,6.92-10.32,7.23-17.03
	c0.03-0.73,0.04-1.47,0.02-2.21L737.962,327.54z M289.192,124.73h59.46v48.01l-59.46,58.94V124.73z M713.832,337.19h-0.02
	c-10.81,0.95-20.97-10.06-30.01-19.72c-2.33-2.57-4.66-4.88-6.77-7l-197.29-192.62c-2.46-2.39-6.09-2.93-9.12-1.63
	c-0.05,0.03-0.11,0.06-0.16,0.08c-0.18,0.08-0.36,0.18-0.53,0.26c-0.41,0.23-0.82,0.51-1.2,0.83c-0.23,0.16-0.44,0.36-0.64,0.57
	l-210.6,210.6c-0.33,0.31-0.66,0.64-1,0.96c-0.33,0.31-0.68,0.6-1.01,0.9c-0.29,0.26-0.59,0.51-0.88,0.75
	c-5.08,4.13-10.46,5.95-15.98,5.49c-1.24-0.09-2.37-0.31-3.38-0.67c-1.79-0.64-3.25-1.69-4.39-3.11c-0.87-1.17-1.5-2.62-1.87-4.24
	c-0.05-0.19-0.1-0.39-0.13-0.59c-0.46-2.37-0.4-5.06,0.22-7.8c0.32-1.35,0.76-2.65,1.31-3.92c3.19-7.47,9.9-13.63,17.02-20.16
	c2.43-2.24,4.76-4.34,6.98-6.56l204.39-202.73c0.12-0.21,1.33-1.33,1.43-1.43c0,0,1.17-1.3,3.16-2.86c2.76-2.2,7.16-4.9,12.31-5.31
	c0.28-0.01,0.56-0.03,0.85-0.05c0.41-0.01,0.81,0,1.23,0.04c5.33,0.28,11.08,3.05,16.64,8.63c0,0,126.54,128.79,183.87,187.13
	c16.68,16.98,27.5,27.99,27.62,28.12c2.11,2.18,4.35,4.59,6.44,7.22c3.95,4.93,7.41,10.6,8.64,16.91c0.15,0.75,0.27,1.51,0.35,2.28
	c0.08,0.77,0.09,1.53,0.04,2.26c-0.01,0.19-0.02,0.38-0.04,0.57c-0.15,1.43-0.54,2.71-1.12,3.7c0,0.01-0.01,0.01-0.01,0.01
	c-0.25,0.44-0.55,0.81-0.88,1.12c-0.44,0.44-1.01,0.83-1.68,1.13c-0.69,0.31-1.47,0.53-2.31,0.64c-0.26,0.05-0.53,0.09-0.79,0.12
	C714.292,337.14,714.062,337.16,713.832,337.19z"/>
<g>
	<g>
		<path class="st0" d="M1473.438,488.566c-24.8,0-43.983-19.184-43.983-42.112c0-22.459,19.184-42.112,43.983-42.112
			c24.332,0,43.983,18.716,43.983,42.112C1517.422,470.317,1497.77,488.566,1473.438,488.566z M1435.069,559.221
			c0-36.965,25.735-43.048,38.369-43.048c12.634,0,38.369,6.083,38.369,43.048v156.282c0,36.965-25.735,43.048-38.369,43.048
			c-12.634,0-38.369-6.083-38.369-43.048V559.221z"/>
		<path class="st0" d="M1572.631,557.349c0-35.561,24.8-41.176,36.965-41.176c12.165,0,36.029,5.615,37.432,36.965h0.937
			c10.761-20.588,37.432-38.837,69.719-38.837c62.701,0,85.16,48.663,85.16,95.454v105.748c0,36.965-25.735,43.048-38.837,43.048
			c-12.634,0-38.369-6.083-38.369-43.048V626.6c0-25.735-7.019-49.13-34.625-49.13c-27.14,0-41.177,23.395-41.177,50.066v87.967
			c0,36.965-25.735,43.048-38.837,43.048c-12.634,0-38.369-6.083-38.369-43.048V557.349z"/>
		<path class="st0" d="M1861.329,438.5c0-36.965,25.735-43.048,38.369-43.048c13.101,0,38.837,6.083,38.837,43.048v176.87h1.403
			l78.61-82.82c11.229-11.698,21.992-16.377,33.222-16.377c21.056,0,35.093,15.909,35.093,35.093
			c0,9.359-3.276,19.652-15.909,30.883l-47.727,43.983l58.957,65.976c10.761,11.698,12.634,21.992,12.634,29.011
			c0,21.056-15.909,37.433-36.965,37.433c-14.037,0-24.8-6.083-37.901-21.524l-80.013-94.986h-1.403v73.462
			c0,36.965-25.735,43.048-38.837,43.048c-12.634,0-38.369-6.083-38.369-43.048V438.5z"/>
	</g>
</g>
<path class="st2" d="M508.104,569.056"/>
<g>
	<g>
		<g>
			<g>
				<path class="st2" d="M377.438,569.056"/>
			</g>
		</g>
	</g>
</g>
<path class="st0" d="M140.273,379.561"/>
<g>
	<path class="st0" d="M485.771,1167.918h-5.75v18.568c0,7.54-5.372,8.859-7.917,8.859s-7.917-1.319-7.917-8.859v-49.578
		c0-6.314,2.922-9.236,9.236-9.236h16.212c18.567,0,25.542,9.143,25.542,20.17c0,8.954-5.184,15.27-13.572,17.908l12.348,16.494
		c1.508,2.074,2.073,3.959,2.073,5.562c0,4.336-3.394,7.54-7.823,7.54c-2.073,0-4.713-0.848-6.88-4.147L485.771,1167.918z
		 M488.505,1140.679h-8.577v15.552h7.635c5.184,0,11.688-1.319,11.688-8.105C499.25,1141.904,493.312,1140.679,488.505,1140.679z"/>
	<path class="st0" d="M562.206,1179.323c3.394,0,5.938,2.355,5.938,5.843c0,1.32-0.472,3.488-2.733,5.278
		c-4.054,3.299-9.708,5.467-17.249,5.467c-14.138,0-25.825-8.954-25.825-24.788c0-15.363,11.122-25.166,25.354-25.166
		c11.781,0,20.264,6.881,22.809,18.19c0.283,1.32,0.472,2.451,0.472,3.582c0,5.278-3.11,7.446-8.011,7.446h-25.826
		c0.471,5.184,5.655,8.859,11.217,8.859c3.581,0,5.938-0.659,8.953-2.733C559.662,1179.7,560.698,1179.323,562.206,1179.323z
		 M557.022,1165.562c0-4.901-3.11-8.954-9.237-8.954c-5.938,0-10.273,4.147-10.65,8.954H557.022z"/>
	<path class="st0" d="M612.91,1186.769c-3.016,7.069-7.729,8.577-11.404,8.577s-8.201-1.508-11.311-8.577l-12.254-28.275
		c-0.754-1.791-1.036-3.394-1.036-4.431c0-4.43,3.299-7.54,7.729-7.54c2.545,0,5.655,1.037,7.729,6.504l9.33,24.883h0.283
		l9.143-24.978c1.979-5.561,5.278-6.409,7.541-6.409c4.43,0,7.539,3.11,7.539,7.163c0,0.754-0.094,2.451-1.036,4.619
		L612.91,1186.769z"/>
	<path class="st0" d="M657.958,1195.911c-14.138,0-26.015-9.802-26.015-25.165s11.877-24.789,26.015-24.789
		c14.232,0,26.108,9.426,26.108,24.789S672.19,1195.911,657.958,1195.911z M657.958,1158.775c-7.258,0-11.028,5.938-11.028,11.971
		s3.865,12.158,11.123,12.158c7.257,0,11.121-6.126,11.121-12.158S665.215,1158.775,657.958,1158.775z"/>
	<path class="st0" d="M694.052,1130.971c0-7.54,5.278-8.766,7.823-8.766s7.822,1.226,7.822,8.766v55.609
		c0,7.54-5.277,8.766-7.822,8.766s-7.823-1.226-7.823-8.766V1130.971z"/>
	<path class="st0" d="M767.755,1187.052c0,7.163-4.995,8.294-7.352,8.294c-2.45,0-7.258-1.131-7.54-7.446h-0.189
		c-2.168,4.147-7.539,7.823-14.043,7.823c-12.631,0-17.154-9.802-17.154-19.228v-21.301c0-7.446,5.184-8.672,7.822-8.672
		c2.545,0,7.729,1.226,7.729,8.672v17.719c0,5.278,1.319,9.991,6.975,9.991c5.372,0,8.294-4.713,8.294-10.085v-17.625
		c0-7.446,5.185-8.672,7.729-8.672c2.544,0,7.729,1.226,7.729,8.672V1187.052z"/>
	<path class="st0" d="M781.418,1142.658c0-7.258,5.184-8.482,7.634-8.482c2.356,0,7.54,1.225,7.54,8.482v4.807h5.467
		c5.467,0,6.504,3.959,6.504,5.75c0,1.885-1.037,5.844-6.504,5.844h-5.467v17.908c0,4.335,1.226,6.409,4.619,6.409
		c0.471,0,0.754,0,1.225,0c3.865,0,5.75,2.922,5.75,5.561c0,4.901-4.43,6.598-9.991,6.598c-12.536,0-16.683-6.691-16.683-16.683
		v-19.793h-1.979c-5.467,0-6.503-3.959-6.503-5.844c0-1.791,1.036-5.75,6.503-5.75h1.886V1142.658z"/>
	<path class="st0" d="M822.791,1140.962c-4.995,0-8.859-3.865-8.859-8.483c0-4.524,3.864-8.482,8.859-8.482
		c4.901,0,8.86,3.77,8.86,8.482C831.651,1137.286,827.692,1140.962,822.791,1140.962z M815.062,1155.194
		c0-7.446,5.184-8.672,7.729-8.672s7.729,1.226,7.729,8.672v31.48c0,7.445-5.184,8.671-7.729,8.671s-7.729-1.226-7.729-8.671
		V1155.194z"/>
	<path class="st0" d="M866.428,1195.911c-14.138,0-26.014-9.802-26.014-25.165s11.876-24.789,26.014-24.789
		c14.232,0,26.108,9.426,26.108,24.789S880.66,1195.911,866.428,1195.911z M866.428,1158.775c-7.258,0-11.027,5.938-11.027,11.971
		s3.864,12.158,11.122,12.158c7.257,0,11.122-6.126,11.122-12.158S873.686,1158.775,866.428,1158.775z"/>
	<path class="st0" d="M902.333,1154.816c0-7.163,4.995-8.294,7.446-8.294c2.45,0,7.258,1.131,7.54,7.446h0.188
		c2.168-4.147,7.541-7.823,14.044-7.823c12.63,0,17.153,9.803,17.153,19.228v21.302c0,7.445-5.184,8.671-7.822,8.671
		c-2.545,0-7.729-1.226-7.729-8.671v-17.908c0-5.185-1.414-9.896-6.975-9.896c-5.467,0-8.295,4.712-8.295,10.085v17.72
		c0,7.445-5.184,8.671-7.822,8.671c-2.545,0-7.729-1.226-7.729-8.671V1154.816z"/>
	<path class="st0" d="M968.307,1140.962c-4.996,0-8.86-3.865-8.86-8.483c0-4.524,3.864-8.482,8.86-8.482
		c4.9,0,8.859,3.77,8.859,8.482C977.166,1137.286,973.207,1140.962,968.307,1140.962z M960.577,1155.194
		c0-7.446,5.185-8.672,7.729-8.672c2.544,0,7.729,1.226,7.729,8.672v31.48c0,7.445-5.185,8.671-7.729,8.671
		c-2.545,0-7.729-1.226-7.729-8.671V1155.194z"/>
	<path class="st0" d="M985.08,1186.486c0-3.394,2.545-6.032,5.938-6.032c1.508,0,2.922,0.471,4.712,1.696
		c2.734,1.885,5.279,2.639,7.729,2.639c2.545,0,5.562-1.036,5.562-4.053c0-2.922-2.922-3.77-9.332-5.278
		c-6.503-1.508-13.666-4.9-13.666-13.761c0-11.216,10.557-15.74,19.51-15.74c4.053,0,9.614,0.942,12.725,2.733
		s3.959,3.771,3.959,5.655c0,3.299-2.263,5.844-5.844,5.844c-1.226,0-2.451-0.472-3.959-1.319c-2.168-1.226-3.959-1.791-6.314-1.791
		c-2.922,0-5.844,1.036-5.844,3.77c0,2.64,2.545,3.299,8.576,4.619c7.164,1.602,14.986,5.278,14.986,14.421
		c0,11.876-10.462,16.022-20.076,16.022c-5.372,0-11.498-1.319-15.08-3.676C985.929,1190.444,985.08,1188.371,985.08,1186.486z"/>
	<path class="st0" d="M1070.281,1179.323c3.393,0,5.938,2.355,5.938,5.843c0,1.32-0.471,3.488-2.733,5.278
		c-4.053,3.299-9.708,5.467-17.248,5.467c-14.138,0-25.825-8.954-25.825-24.788c0-15.363,11.121-25.166,25.354-25.166
		c11.782,0,20.265,6.881,22.81,18.19c0.282,1.32,0.472,2.451,0.472,3.582c0,5.278-3.111,7.446-8.012,7.446h-25.826
		c0.472,5.184,5.656,8.859,11.217,8.859c3.582,0,5.938-0.659,8.954-2.733C1067.736,1179.7,1068.773,1179.323,1070.281,1179.323z
		 M1065.098,1165.562c0-4.901-3.111-8.954-9.237-8.954c-5.938,0-10.274,4.147-10.651,8.954H1065.098z"/>
	<path class="st0" d="M1133.896,1177.438h0.282l8.578-24.223c1.885-5.467,4.9-6.692,7.54-6.692c4.43,0,7.634,3.017,7.634,7.163
		c0,0.942-0.188,2.451-0.848,4.147l-18.285,43.828c-4.053,9.708-8.672,15.363-20.642,15.363h-0.849
		c-6.504,0-7.729-4.241-7.729-6.598c0-2.168,1.037-6.598,7.352-6.598c1.979,0,5.09-0.188,7.258-5.844l1.696-4.336l-16.212-35.251
		c-0.754-1.696-1.036-3.394-1.036-4.336c0-4.241,3.204-7.54,7.729-7.54c2.827,0,5.938,1.414,7.729,6.221L1133.896,1177.438z"/>
	<path class="st0" d="M1189.594,1195.911c-14.138,0-26.014-9.802-26.014-25.165s11.876-24.789,26.014-24.789
		c14.232,0,26.108,9.426,26.108,24.789S1203.826,1195.911,1189.594,1195.911z M1189.594,1158.775
		c-7.258,0-11.027,5.938-11.027,11.971s3.864,12.158,11.122,12.158c7.257,0,11.122-6.126,11.122-12.158
		S1196.852,1158.775,1189.594,1158.775z"/>
	<path class="st0" d="M1271.307,1187.052c0,7.163-4.995,8.294-7.352,8.294c-2.451,0-7.258-1.131-7.541-7.446h-0.188
		c-2.168,4.147-7.541,7.823-14.044,7.823c-12.63,0-17.154-9.802-17.154-19.228v-21.301c0-7.446,5.185-8.672,7.823-8.672
		c2.545,0,7.729,1.226,7.729,8.672v17.719c0,5.278,1.319,9.991,6.975,9.991c5.373,0,8.295-4.713,8.295-10.085v-17.625
		c0-7.446,5.184-8.672,7.729-8.672s7.729,1.226,7.729,8.672V1187.052z"/>
	<path class="st0" d="M1283.367,1154.816c0-7.163,4.995-8.294,7.445-8.294c2.356,0,7.446,1.226,7.446,7.729h0.188
		c1.791-3.958,4.901-8.011,9.803-8.011c4.336,0,6.881,2.921,6.881,6.786c0,3.487-1.98,6.975-7.918,7.352
		c-5.373,0.377-8.389,4.524-8.389,9.896v16.4c0,7.445-5.184,8.671-7.729,8.671s-7.729-1.226-7.729-8.671V1154.816z"/>
	<path class="st0" d="M1381.763,1179.323c3.394,0,5.938,2.355,5.938,5.843c0,1.32-0.472,3.488-2.733,5.278
		c-4.054,3.299-9.708,5.467-17.249,5.467c-14.138,0-25.825-8.954-25.825-24.788c0-15.363,11.122-25.166,25.354-25.166
		c11.781,0,20.264,6.881,22.809,18.19c0.283,1.32,0.472,2.451,0.472,3.582c0,5.278-3.11,7.446-8.011,7.446h-25.826
		c0.471,5.184,5.655,8.859,11.217,8.859c3.581,0,5.938-0.659,8.953-2.733C1379.219,1179.7,1380.255,1179.323,1381.763,1179.323z
		 M1376.579,1165.562c0-4.901-3.11-8.954-9.237-8.954c-5.938,0-10.273,4.147-10.65,8.954H1376.579z"/>
	<path class="st0" d="M1400.42,1154.816c0-7.163,4.996-8.294,7.445-8.294c2.451,0,7.258,1.131,7.541,7.446h0.188
		c2.168-4.147,7.54-7.823,14.044-7.823c12.63,0,17.154,9.803,17.154,19.228v21.302c0,7.445-5.184,8.671-7.823,8.671
		c-2.545,0-7.729-1.226-7.729-8.671v-17.908c0-5.185-1.413-9.896-6.975-9.896c-5.467,0-8.294,4.712-8.294,10.085v17.72
		c0,7.445-5.185,8.671-7.823,8.671c-2.545,0-7.729-1.226-7.729-8.671V1154.816z"/>
	<path class="st0" d="M1458.287,1206.279c0-3.582,2.451-6.692,6.409-6.692c1.319,0,2.733,0.283,5.185,1.791
		c3.77,2.263,7.445,3.11,10.744,3.11c8.012,0,12.441-5.184,12.441-13.007v-2.827h-0.283c-2.922,3.77-8.011,6.221-14.231,6.221
		c-14.232,0-22.433-11.122-22.433-24.129c0-13.008,8.2-24.601,22.338-24.601c5.844,0,11.688,2.356,14.986,7.352h0.189
		c0.471-5.749,4.9-6.975,7.257-6.975c2.45,0,7.352,1.131,7.352,8.294v35.157c0,18.379-10.933,27.051-27.616,27.051
		c-5.75,0-13.384-1.226-18.474-4.619C1459.324,1210.521,1458.287,1208.259,1458.287,1206.279z M1482.133,1158.775
		c-6.975,0-11.027,5.372-11.027,11.876c0,6.221,4.053,11.971,11.027,11.971c7.069,0,11.405-5.562,11.405-11.971
		S1489.107,1158.775,1482.133,1158.775z"/>
	<path class="st0" d="M1526.992,1161.415c-3.016,0-5.467-2.356-5.467-5.562c0-1.791,0.755-3.959,3.677-5.749
		c4.901-3.017,10.556-4.147,15.552-4.147c15.74,0,21.584,7.729,21.584,24.789v16.494c0,6.88-4.807,8.105-7.163,8.105
		c-2.073,0-6.127-0.942-6.976-5.938h-0.282c-2.356,3.864-7.729,6.126-13.29,6.126c-7.445,0-17.06-3.676-17.06-14.703
		c0-13.572,16.494-15.835,30.161-15.835v-0.754c0-4.147-3.205-6.786-8.012-6.786c-3.016,0-6.127,1.508-9.143,3.016
		C1529.255,1161.132,1528.029,1161.415,1526.992,1161.415z M1548.199,1173.95h-1.979c-6.787,0-14.421,0.849-14.421,6.409
		c0,3.582,3.581,4.807,6.692,4.807c6.221,0,9.707-3.77,9.707-9.613V1173.95z"/>
	<path class="st0" d="M1573.644,1206.279c0-3.582,2.45-6.692,6.409-6.692c1.319,0,2.733,0.283,5.184,1.791
		c3.771,2.263,7.446,3.11,10.745,3.11c8.012,0,12.441-5.184,12.441-13.007v-2.827h-0.282c-2.922,3.77-8.012,6.221-14.232,6.221
		c-14.232,0-22.433-11.122-22.433-24.129c0-13.008,8.2-24.601,22.339-24.601c5.844,0,11.687,2.356,14.986,7.352h0.188
		c0.472-5.749,4.901-6.975,7.258-6.975c2.451,0,7.352,1.131,7.352,8.294v35.157c0,18.379-10.934,27.051-27.616,27.051
		c-5.749,0-13.384-1.226-18.474-4.619C1574.68,1210.521,1573.644,1208.259,1573.644,1206.279z M1597.49,1158.775
		c-6.975,0-11.028,5.372-11.028,11.876c0,6.221,4.054,11.971,11.028,11.971c7.068,0,11.404-5.562,11.404-11.971
		S1604.465,1158.775,1597.49,1158.775z"/>
	<path class="st0" d="M1643.764,1140.962c-4.996,0-8.86-3.865-8.86-8.483c0-4.524,3.864-8.482,8.86-8.482
		c4.9,0,8.859,3.77,8.859,8.482C1652.623,1137.286,1648.664,1140.962,1643.764,1140.962z M1636.034,1155.194
		c0-7.446,5.185-8.672,7.729-8.672c2.544,0,7.729,1.226,7.729,8.672v31.48c0,7.445-5.185,8.671-7.729,8.671
		c-2.545,0-7.729-1.226-7.729-8.671V1155.194z"/>
	<path class="st0" d="M1663.742,1154.816c0-7.163,4.995-8.294,7.445-8.294c2.451,0,7.258,1.131,7.541,7.446h0.188
		c2.168-4.147,7.541-7.823,14.045-7.823c12.629,0,17.153,9.803,17.153,19.228v21.302c0,7.445-5.184,8.671-7.823,8.671
		c-2.545,0-7.729-1.226-7.729-8.671v-17.908c0-5.185-1.414-9.896-6.975-9.896c-5.467,0-8.295,4.712-8.295,10.085v17.72
		c0,7.445-5.184,8.671-7.822,8.671c-2.545,0-7.729-1.226-7.729-8.671V1154.816z"/>
	<path class="st0" d="M1721.609,1206.279c0-3.582,2.45-6.692,6.408-6.692c1.32,0,2.734,0.283,5.185,1.791
		c3.771,2.263,7.446,3.11,10.745,3.11c8.012,0,12.441-5.184,12.441-13.007v-2.827h-0.283c-2.922,3.77-8.012,6.221-14.232,6.221
		c-14.232,0-22.432-11.122-22.432-24.129c0-13.008,8.199-24.601,22.338-24.601c5.844,0,11.688,2.356,14.986,7.352h0.188
		c0.472-5.749,4.901-6.975,7.257-6.975c2.451,0,7.353,1.131,7.353,8.294v35.157c0,18.379-10.934,27.051-27.616,27.051
		c-5.75,0-13.385-1.226-18.475-4.619C1722.646,1210.521,1721.609,1208.259,1721.609,1206.279z M1745.455,1158.775
		c-6.975,0-11.027,5.372-11.027,11.876c0,6.221,4.053,11.971,11.027,11.971c7.068,0,11.404-5.562,11.404-11.971
		S1752.43,1158.775,1745.455,1158.775z"/>
	<path class="st0" d="M708.238,1292.419c3.393,0,5.938,2.355,5.938,5.843c0,1.32-0.471,3.488-2.733,5.278
		c-4.053,3.299-9.708,5.467-17.248,5.467c-14.138,0-25.825-8.954-25.825-24.788c0-15.363,11.121-25.166,25.354-25.166
		c11.782,0,20.265,6.881,22.81,18.19c0.282,1.32,0.472,2.451,0.472,3.582c0,5.278-3.111,7.446-8.012,7.446h-25.826
		c0.472,5.184,5.656,8.859,11.217,8.859c3.582,0,5.938-0.659,8.954-2.733C705.693,1292.796,706.73,1292.419,708.238,1292.419z
		 M703.055,1278.657c0-4.901-3.111-8.954-9.237-8.954c-5.938,0-10.274,4.147-10.651,8.954H703.055z"/>
	<path class="st0" d="M742.07,1267.064c2.168-3.959,6.975-7.823,14.044-7.823c6.786,0,11.499,2.922,14.138,8.012
		c3.11-4.901,8.012-8.012,14.986-8.012c12.725,0,17.061,10.368,17.061,19.228v21.302c0,7.445-5.185,8.671-7.729,8.671
		c-2.544,0-7.729-1.226-7.729-8.671v-17.908c0-5.373-1.226-9.896-6.692-9.896c-5.277,0-7.822,4.9-7.822,10.179v17.626
		c0,7.445-5.185,8.671-7.729,8.671c-2.544,0-7.729-1.226-7.729-8.671v-19.039c0-5.373-2.073-8.766-6.692-8.766
		c-4.9,0-7.729,4.43-7.729,10.085v17.72c0,7.445-5.184,8.671-7.822,8.671c-2.545,0-7.729-1.226-7.729-8.671v-31.858
		c0-7.163,4.995-8.294,7.446-8.294c2.45,0,7.258,1.131,7.54,7.446H742.07z"/>
	<path class="st0" d="M820.482,1274.511c-3.016,0-5.467-2.356-5.467-5.562c0-1.791,0.754-3.959,3.676-5.749
		c4.901-3.017,10.557-4.147,15.553-4.147c15.74,0,21.584,7.729,21.584,24.789v16.494c0,6.88-4.808,8.105-7.164,8.105
		c-2.073,0-6.127-0.942-6.975-5.938h-0.283c-2.355,3.864-7.729,6.126-13.289,6.126c-7.446,0-17.061-3.676-17.061-14.703
		c0-13.572,16.495-15.835,30.162-15.835v-0.754c0-4.147-3.205-6.786-8.012-6.786c-3.017,0-6.127,1.508-9.143,3.016
		C822.744,1274.228,821.52,1274.511,820.482,1274.511z M841.689,1287.046h-1.979c-6.787,0-14.422,0.849-14.422,6.409
		c0,3.582,3.582,4.807,6.692,4.807c6.221,0,9.708-3.77,9.708-9.613V1287.046z"/>
	<path class="st0" d="M875.24,1254.058c-4.996,0-8.86-3.865-8.86-8.483c0-4.524,3.864-8.482,8.86-8.482
		c4.9,0,8.859,3.77,8.859,8.482C884.1,1250.382,880.141,1254.058,875.24,1254.058z M867.511,1268.29
		c0-7.446,5.185-8.672,7.729-8.672c2.544,0,7.729,1.226,7.729,8.672v31.48c0,7.445-5.185,8.671-7.729,8.671
		c-2.545,0-7.729-1.226-7.729-8.671V1268.29z"/>
	<path class="st0" d="M895.406,1244.066c0-7.54,5.279-8.766,7.824-8.766c2.544,0,7.822,1.226,7.822,8.766v55.609
		c0,7.54-5.278,8.766-7.822,8.766c-2.545,0-7.824-1.226-7.824-8.766V1244.066z"/>
	<path class="st0" d="M920.098,1299.582c0-3.394,2.545-6.032,5.938-6.032c1.508,0,2.922,0.471,4.712,1.696
		c2.734,1.885,5.279,2.639,7.729,2.639c2.545,0,5.562-1.036,5.562-4.053c0-2.922-2.922-3.77-9.332-5.278
		c-6.503-1.508-13.666-4.9-13.666-13.761c0-11.216,10.557-15.74,19.51-15.74c4.053,0,9.614,0.942,12.725,2.733
		s3.959,3.771,3.959,5.655c0,3.299-2.263,5.844-5.844,5.844c-1.226,0-2.451-0.472-3.959-1.319c-2.168-1.226-3.959-1.791-6.314-1.791
		c-2.922,0-5.844,1.036-5.844,3.77c0,2.64,2.545,3.299,8.576,4.619c7.164,1.602,14.986,5.278,14.986,14.421
		c0,11.876-10.462,16.022-20.076,16.022c-5.372,0-11.498-1.319-15.08-3.676C920.946,1303.54,920.098,1301.467,920.098,1299.582z"/>
	<path class="st0" d="M999.265,1254.058c-4.995,0-8.86-3.865-8.86-8.483c0-4.524,3.865-8.482,8.86-8.482
		c4.901,0,8.86,3.77,8.86,8.482C1008.125,1250.382,1004.166,1254.058,999.265,1254.058z M991.535,1268.29
		c0-7.446,5.185-8.672,7.729-8.672c2.544,0,7.729,1.226,7.729,8.672v31.48c0,7.445-5.185,8.671-7.729,8.671
		c-2.545,0-7.729-1.226-7.729-8.671V1268.29z"/>
	<path class="st0" d="M1019.244,1267.912c0-7.163,4.995-8.294,7.445-8.294c2.451,0,7.258,1.131,7.541,7.446h0.188
		c2.168-4.147,7.541-7.823,14.045-7.823c12.629,0,17.153,9.803,17.153,19.228v21.302c0,7.445-5.184,8.671-7.823,8.671
		c-2.545,0-7.729-1.226-7.729-8.671v-17.908c0-5.185-1.414-9.896-6.975-9.896c-5.467,0-8.295,4.712-8.295,10.085v17.72
		c0,7.445-5.184,8.671-7.822,8.671c-2.545,0-7.729-1.226-7.729-8.671V1267.912z"/>
	<path class="st0" d="M1100.861,1267.912c0-7.163,4.995-8.294,7.445-8.294c2.356,0,7.446,1.226,7.446,7.729h0.188
		c1.791-3.958,4.901-8.011,9.803-8.011c4.336,0,6.881,2.921,6.881,6.786c0,3.487-1.98,6.975-7.918,7.352
		c-5.373,0.377-8.389,4.524-8.389,9.896v16.4c0,7.445-5.184,8.671-7.729,8.671s-7.729-1.226-7.729-8.671V1267.912z"/>
	<path class="st0" d="M1174,1292.419c3.393,0,5.938,2.355,5.938,5.843c0,1.32-0.471,3.488-2.733,5.278
		c-4.053,3.299-9.708,5.467-17.248,5.467c-14.138,0-25.825-8.954-25.825-24.788c0-15.363,11.121-25.166,25.354-25.166
		c11.782,0,20.265,6.881,22.81,18.19c0.282,1.32,0.472,2.451,0.472,3.582c0,5.278-3.111,7.446-8.012,7.446h-25.826
		c0.472,5.184,5.656,8.859,11.217,8.859c3.582,0,5.938-0.659,8.954-2.733C1171.455,1292.796,1172.492,1292.419,1174,1292.419z
		 M1168.816,1278.657c0-4.901-3.111-8.954-9.237-8.954c-5.938,0-10.274,4.147-10.651,8.954H1168.816z"/>
	<path class="st0" d="M1198.596,1274.511c-3.017,0-5.467-2.356-5.467-5.562c0-1.791,0.754-3.959,3.676-5.749
		c4.9-3.017,10.557-4.147,15.552-4.147c15.74,0,21.584,7.729,21.584,24.789v16.494c0,6.88-4.808,8.105-7.163,8.105
		c-2.074,0-6.127-0.942-6.975-5.938h-0.283c-2.356,3.864-7.729,6.126-13.289,6.126c-7.447,0-17.061-3.676-17.061-14.703
		c0-13.572,16.494-15.835,30.161-15.835v-0.754c0-4.147-3.204-6.786-8.012-6.786c-3.017,0-6.126,1.508-9.143,3.016
		C1200.857,1274.228,1199.632,1274.511,1198.596,1274.511z M1219.803,1287.046h-1.979c-6.786,0-14.421,0.849-14.421,6.409
		c0,3.582,3.582,4.807,6.691,4.807c6.221,0,9.709-3.77,9.709-9.613V1287.046z"/>
	<path class="st0" d="M1245.623,1244.066c0-7.54,5.279-8.766,7.824-8.766c2.544,0,7.822,1.226,7.822,8.766v55.609
		c0,7.54-5.278,8.766-7.822,8.766c-2.545,0-7.824-1.226-7.824-8.766V1244.066z"/>
	<path class="st0" d="M1334.594,1292.419c3.394,0,5.938,2.355,5.938,5.843c0,1.32-0.471,3.488-2.732,5.278
		c-4.053,3.299-9.709,5.467-17.248,5.467c-14.139,0-25.826-8.954-25.826-24.788c0-15.363,11.122-25.166,25.354-25.166
		c11.782,0,20.265,6.881,22.81,18.19c0.282,1.32,0.471,2.451,0.471,3.582c0,5.278-3.11,7.446-8.012,7.446h-25.825
		c0.472,5.184,5.655,8.859,11.216,8.859c3.582,0,5.938-0.659,8.955-2.733C1332.049,1292.796,1333.086,1292.419,1334.594,1292.419z
		 M1329.41,1278.657c0-4.901-3.11-8.954-9.236-8.954c-5.938,0-10.274,4.147-10.651,8.954H1329.41z"/>
	<path class="st0" d="M1350.047,1299.582c0-3.394,2.545-6.032,5.938-6.032c1.508,0,2.922,0.471,4.713,1.696
		c2.733,1.885,5.278,2.639,7.729,2.639c2.545,0,5.562-1.036,5.562-4.053c0-2.922-2.922-3.77-9.331-5.278
		c-6.504-1.508-13.667-4.9-13.667-13.761c0-11.216,10.557-15.74,19.511-15.74c4.053,0,9.613,0.942,12.725,2.733
		c3.109,1.791,3.958,3.771,3.958,5.655c0,3.299-2.262,5.844-5.844,5.844c-1.226,0-2.45-0.472-3.958-1.319
		c-2.168-1.226-3.959-1.791-6.315-1.791c-2.922,0-5.844,1.036-5.844,3.77c0,2.64,2.545,3.299,8.577,4.619
		c7.163,1.602,14.986,5.278,14.986,14.421c0,11.876-10.463,16.022-20.076,16.022c-5.373,0-11.499-1.319-15.08-3.676
		C1350.895,1303.54,1350.047,1301.467,1350.047,1299.582z"/>
	<path class="st0" d="M1399.337,1255.754c0-7.258,5.184-8.482,7.634-8.482c2.357,0,7.541,1.225,7.541,8.482v4.807h5.467
		c5.467,0,6.504,3.959,6.504,5.75c0,1.885-1.037,5.844-6.504,5.844h-5.467v17.908c0,4.335,1.225,6.409,4.618,6.409
		c0.472,0,0.754,0,1.226,0c3.864,0,5.749,2.922,5.749,5.561c0,4.901-4.43,6.598-9.991,6.598c-12.535,0-16.682-6.691-16.682-16.683
		v-19.793h-1.98c-5.467,0-6.503-3.959-6.503-5.844c0-1.791,1.036-5.75,6.503-5.75h1.886V1255.754z"/>
	<path class="st0" d="M1439.297,1274.511c-3.016,0-5.467-2.356-5.467-5.562c0-1.791,0.754-3.959,3.676-5.749
		c4.901-3.017,10.557-4.147,15.553-4.147c15.74,0,21.584,7.729,21.584,24.789v16.494c0,6.88-4.808,8.105-7.164,8.105
		c-2.073,0-6.127-0.942-6.975-5.938h-0.283c-2.355,3.864-7.729,6.126-13.289,6.126c-7.446,0-17.061-3.676-17.061-14.703
		c0-13.572,16.495-15.835,30.162-15.835v-0.754c0-4.147-3.205-6.786-8.012-6.786c-3.017,0-6.127,1.508-9.143,3.016
		C1441.559,1274.228,1440.334,1274.511,1439.297,1274.511z M1460.504,1287.046h-1.979c-6.787,0-14.422,0.849-14.422,6.409
		c0,3.582,3.582,4.807,6.692,4.807c6.221,0,9.708-3.77,9.708-9.613V1287.046z"/>
	<path class="st0" d="M1486.797,1255.754c0-7.258,5.184-8.482,7.635-8.482c2.356,0,7.541,1.225,7.541,8.482v4.807h5.466
		c5.467,0,6.504,3.959,6.504,5.75c0,1.885-1.037,5.844-6.504,5.844h-5.466v17.908c0,4.335,1.225,6.409,4.617,6.409
		c0.472,0,0.754,0,1.226,0c3.864,0,5.749,2.922,5.749,5.561c0,4.901-4.43,6.598-9.99,6.598c-12.535,0-16.683-6.691-16.683-16.683
		v-19.793h-1.979c-5.467,0-6.504-3.959-6.504-5.844c0-1.791,1.037-5.75,6.504-5.75h1.885V1255.754z"/>
	<path class="st0" d="M1557.767,1292.419c3.394,0,5.938,2.355,5.938,5.843c0,1.32-0.472,3.488-2.733,5.278
		c-4.054,3.299-9.708,5.467-17.249,5.467c-14.138,0-25.825-8.954-25.825-24.788c0-15.363,11.122-25.166,25.354-25.166
		c11.781,0,20.264,6.881,22.809,18.19c0.283,1.32,0.472,2.451,0.472,3.582c0,5.278-3.11,7.446-8.011,7.446h-25.826
		c0.471,5.184,5.655,8.859,11.217,8.859c3.581,0,5.938-0.659,8.953-2.733C1555.223,1292.796,1556.259,1292.419,1557.767,1292.419z
		 M1552.583,1278.657c0-4.901-3.11-8.954-9.237-8.954c-5.938,0-10.273,4.147-10.65,8.954H1552.583z"/>
</g>
<g>
	<path class="st0" d="M162.433,911.566c0-16.794,11.878-19.661,17.612-19.661c5.734,0,17.612,2.867,17.612,19.661v109.771
		c0,16.792-11.878,19.659-17.612,19.659c-5.734,0-17.612-2.867-17.612-19.659V911.566z"/>
	<path class="st0" d="M258.684,951.09c4.71-8.601,15.155-16.998,30.514-16.998c14.745,0,24.985,6.349,30.719,17.407
		c6.758-10.649,17.408-17.407,32.562-17.407c27.647,0,37.068,22.528,37.068,41.778v46.284c0,16.18-11.264,18.841-16.793,18.841
		s-16.793-2.661-16.793-18.841v-38.911c0-11.673-2.663-21.504-14.541-21.504c-11.469,0-16.998,10.649-16.998,22.119v38.297
		c0,16.18-11.264,18.841-16.793,18.841s-16.793-2.661-16.793-18.841v-41.369c0-11.673-4.506-19.046-14.541-19.046
		c-10.649,0-16.793,9.625-16.793,21.913v38.502c0,16.18-11.264,18.841-16.998,18.841c-5.53,0-16.793-2.661-16.793-18.841v-69.222
		c0-15.563,10.854-18.02,16.179-18.02c5.325,0,15.769,2.458,16.384,16.178H258.684z"/>
	<path class="st0" d="M429.07,967.27c-6.553,0-11.878-5.121-11.878-12.083c0-3.891,1.638-8.601,7.987-12.492
		c10.65-6.554,22.937-9.012,33.791-9.012c34.201,0,46.898,16.794,46.898,53.861v35.839c0,14.952-10.445,17.613-15.565,17.613
		c-4.505,0-13.312-2.048-15.155-12.901h-0.614c-5.12,8.395-16.793,13.311-28.876,13.311c-16.179,0-37.068-7.986-37.068-31.948
		c0-29.49,35.839-34.405,65.535-34.405v-1.639c0-9.01-6.963-14.744-17.408-14.744c-6.553,0-13.312,3.276-19.865,6.552
		C433.985,966.655,431.322,967.27,429.07,967.27z M475.149,994.508h-4.301c-14.745,0-31.334,1.843-31.334,13.925
		c0,7.782,7.782,10.446,14.54,10.446c13.517,0,21.094-8.194,21.094-20.889V994.508z"/>
	<path class="st0" d="M530.44,1064.752c0-7.782,5.325-14.54,13.926-14.54c2.867,0,5.939,0.615,11.264,3.891
		c8.192,4.915,16.179,6.758,23.346,6.758c17.408,0,27.033-11.264,27.033-28.262v-6.143h-0.614
		c-6.349,8.192-17.408,13.516-30.924,13.516c-30.925,0-48.742-24.165-48.742-52.428c0-28.262,17.817-53.452,48.536-53.452
		c12.698,0,25.395,5.121,32.563,15.974h0.41c1.024-12.492,10.649-15.153,15.769-15.153c5.325,0,15.974,2.458,15.974,18.02v76.39
		c0,39.936-23.756,58.776-60.005,58.776c-12.492,0-29.081-2.663-40.14-10.034C532.693,1073.968,530.44,1069.052,530.44,1064.752z
		 M582.253,961.536c-15.155,0-23.961,11.673-23.961,25.805c0,13.516,8.806,26.008,23.961,26.008c15.36,0,24.78-12.083,24.78-26.008
		C607.033,973.413,597.408,961.536,582.253,961.536z"/>
	<path class="st0" d="M747.109,1006.181c7.373,0,12.902,5.119,12.902,12.698c0,2.867-1.024,7.577-5.939,11.468
		c-8.806,7.167-21.094,11.879-37.477,11.879c-30.719,0-56.114-19.456-56.114-53.863c0-33.381,24.166-54.68,55.09-54.68
		c25.599,0,44.031,14.95,49.561,39.526c0.614,2.867,1.024,5.325,1.024,7.782c0,11.468-6.758,16.177-17.407,16.177h-56.114
		c1.024,11.264,12.288,19.252,24.371,19.252c7.782,0,12.902-1.433,19.456-5.94C741.579,1007,743.832,1006.181,747.109,1006.181z
		 M735.845,976.28c0-10.649-6.758-19.456-20.07-19.456c-12.902,0-22.323,9.012-23.142,19.456H735.845z"/>
	<path class="st0" d="M809.568,1038.948c-13.721,0-20.07-6.349-20.07-20.069V911.566c0-16.794,11.878-19.661,17.612-19.661
		c5.734,0,17.612,2.867,17.612,19.661v96.867h40.959c14.54,0,17.203,10.446,17.203,15.155c0,4.915-2.662,15.359-17.203,15.359
		H809.568z"/>
	<path class="st0" d="M912.575,922.828c-10.854,0-19.251-8.395-19.251-18.432c0-9.829,8.397-18.432,19.251-18.432
		c10.649,0,19.251,8.194,19.251,18.432C931.826,914.842,923.224,922.828,912.575,922.828z M895.782,953.754
		c0-16.18,11.264-18.841,16.793-18.841c5.53,0,16.793,2.661,16.793,18.841v68.402c0,16.18-11.264,18.841-16.793,18.841
		c-5.529,0-16.793-2.661-16.793-18.841V953.754z"/>
	<path class="st0" d="M955.988,952.933c0-15.563,10.854-18.02,16.179-18.02c5.325,0,15.769,2.458,16.384,16.178h0.409
		c4.711-9.01,16.384-16.998,30.515-16.998c27.443,0,37.273,21.299,37.273,41.778v46.284c0,16.18-11.264,18.841-16.998,18.841
		c-5.53,0-16.793-2.661-16.793-18.841v-38.911c0-11.264-3.072-21.504-15.155-21.504c-11.878,0-18.022,10.24-18.022,21.913v38.502
		c0,16.18-11.264,18.841-16.998,18.841c-5.53,0-16.793-2.661-16.793-18.841V952.933z"/>
	<path class="st0" d="M1082.344,900.917c0-16.18,11.264-18.843,16.793-18.843c5.734,0,16.998,2.663,16.998,18.843v77.412h0.614
		l34.405-36.248c4.915-5.121,9.626-7.167,14.541-7.167c9.216,0,15.359,6.962,15.359,15.359c0,4.095-1.433,8.601-6.963,13.516
		l-20.889,19.25l25.804,28.877c4.71,5.119,5.529,9.625,5.529,12.698c0,9.216-6.963,16.383-16.178,16.383
		c-6.144,0-10.854-2.661-16.589-9.421l-35.02-41.573h-0.614v32.153c0,16.18-11.264,18.841-16.998,18.841
		c-5.529,0-16.793-2.661-16.793-18.841V900.917z"/>
	<path class="st0" d="M1326.864,912.179c7.987-18.432,17.203-20.274,23.757-20.274c6.963,0,20.889,3.482,20.889,23.553v106.492
		c0,16.385-11.469,19.046-16.998,19.046c-5.53,0-17.203-2.661-16.998-19.046l0.615-66.762h-0.615l-30.515,69.629
		c-6.144,14.337-13.107,16.179-19.456,16.179c-6.348,0-13.516-2.048-19.455-16.179l-29.286-69.629h-0.615l0.41,67.377
		c0,15.77-11.059,18.431-16.384,18.431c-5.325,0-16.384-2.661-16.384-18.431V915.457c0-20.071,14.336-23.553,21.298-23.553
		c6.553,0,15.974,1.843,23.961,20.274l37.477,87.448h0.819L1326.864,912.179z"/>
	<path class="st0" d="M1413.691,967.27c-6.553,0-11.879-5.121-11.879-12.083c0-3.891,1.639-8.601,7.987-12.492
		c10.649-6.554,22.937-9.012,33.791-9.012c34.201,0,46.898,16.794,46.898,53.861v35.839c0,14.952-10.445,17.613-15.565,17.613
		c-4.505,0-13.312-2.048-15.155-12.901h-0.614c-5.12,8.395-16.793,13.311-28.876,13.311c-16.179,0-37.068-7.986-37.068-31.948
		c0-29.49,35.839-34.405,65.535-34.405v-1.639c0-9.01-6.963-14.744-17.407-14.744c-6.553,0-13.312,3.276-19.865,6.552
		C1418.606,966.655,1415.944,967.27,1413.691,967.27z M1459.77,994.508h-4.301c-14.745,0-31.333,1.843-31.333,13.925
		c0,7.782,7.782,10.446,14.54,10.446c13.516,0,21.094-8.194,21.094-20.889V994.508z"/>
	<path class="st0" d="M1532.673,922.828c-10.854,0-19.25-8.395-19.25-18.432c0-9.829,8.397-18.432,19.25-18.432
		c10.649,0,19.251,8.194,19.251,18.432C1551.925,914.842,1543.323,922.828,1532.673,922.828z M1515.881,953.754
		c0-16.18,11.264-18.841,16.793-18.841c5.53,0,16.793,2.661,16.793,18.841v68.402c0,16.18-11.264,18.841-16.793,18.841
		c-5.529,0-16.793-2.661-16.793-18.841V953.754z"/>
	<path class="st0" d="M1576.497,901.12c0-16.383,11.468-19.046,16.998-19.046c5.529,0,16.998,2.663,16.998,19.046v120.829
		c0,16.385-11.468,19.046-16.998,19.046c-5.53,0-16.998-2.661-16.998-19.046V901.12z"/>
	<path class="st0" d="M1654.93,1040.996c-11.264,0-20.889-8.601-20.889-19.865c0-11.059,9.421-20.274,20.889-20.274
		c11.059,0,20.479,8.806,20.479,20.069C1675.409,1032.189,1665.989,1040.996,1654.93,1040.996z"/>
	<path class="st0" d="M1693.427,987.953c0-33.176,25.19-54.27,56.933-54.27c8.192,0,16.588,1.639,22.527,4.506
		c7.782,3.685,9.83,9.216,9.83,13.516c0,7.782-4.71,14.54-13.721,14.54c-2.458,0-5.325-0.615-9.011-2.458
		c-2.867-1.433-5.734-2.048-9.011-2.048c-14.131,0-23.552,12.083-23.552,26.214s9.216,26.01,23.961,26.01
		c3.277,0,6.144-0.409,9.011-1.843c3.686-1.845,6.553-2.458,9.011-2.458c9.011,0,13.721,6.758,13.721,14.54
		c0,4.3-2.458,9.829-9.83,13.516c-6.144,3.071-14.54,4.506-22.732,4.506C1718.412,1042.226,1693.427,1021.746,1693.427,987.953z"/>
	<path class="st0" d="M1852.959,1042.226c-30.719,0-56.523-21.3-56.523-54.682c0-33.381,25.804-53.861,56.523-53.861
		c30.924,0,56.729,20.48,56.729,53.861C1909.688,1020.925,1883.884,1042.226,1852.959,1042.226z M1852.959,961.536
		c-15.769,0-23.961,12.901-23.961,26.008c0,13.107,8.397,26.419,24.166,26.419c15.769,0,24.166-13.313,24.166-26.419
		C1877.331,974.437,1868.729,961.536,1852.959,961.536z"/>
	<path class="st0" d="M1963.953,951.09c4.71-8.601,15.155-16.998,30.515-16.998c14.745,0,24.985,6.349,30.719,17.407
		c6.758-10.649,17.407-17.407,32.562-17.407c27.648,0,37.068,22.528,37.068,41.778v46.284c0,16.18-11.264,18.841-16.793,18.841
		c-5.529,0-16.793-2.661-16.793-18.841v-38.911c0-11.673-2.662-21.504-14.54-21.504c-11.469,0-16.998,10.649-16.998,22.119v38.297
		c0,16.18-11.264,18.841-16.793,18.841c-5.529,0-16.793-2.661-16.793-18.841v-41.369c0-11.673-4.505-19.046-14.54-19.046
		c-10.649,0-16.793,9.625-16.793,21.913v38.502c0,16.18-11.264,18.841-16.998,18.841c-5.53,0-16.793-2.661-16.793-18.841v-69.222
		c0-15.563,10.854-18.02,16.179-18.02s15.769,2.458,16.384,16.178H1963.953z"/>
</g>
<path class="st3" d="M403.301,664.96l-5.53,3.8l-4.92,3.35l-15.68,10.75l-41.22,28.09l-0.19,0.11c0.01,0.02-0.03,0.02-0.03,0.02
	l-2.61,1.78l-24.41,16.63l-6.98,4.77l-11.79,8.07l-3.31,2.27l-8.6,5.89l-15.44,10.57l-16.74,11.43l-16.79,11.47l40.18,5.41
	l30.59,4.08l-24.49,37.15l-8.44,12.89l12.79,8.58l20.01,13.39l13.04,8.8l8.67-13.16l24.17-36.76l15.47,26.66l20.68,35.79l8.15-40.78
	l5.12-25.71l3.48-18.04l1.18-5.96l4.68-23.81l0.26-1.32l2.99-15.25l1.08-5.43l4.62-23.26l6.61-33.61l1.85-9.15l1.91-9.76l0.17-0.84
	l5.3-26.61L403.301,664.96z M388.411,772.49l-0.95,4.8l-3.72,18.88l-1.13,5.76l-2.46,12.52l-5.68,28.8l-23.52-40.56l-3.33-5.74
	l-1.28-2.2l-0.63,1.05l-3.16,4.8l-34.17,51.95l-20.11-13.26l32.57-49.57l5.06-7.7l0.33-0.51l-1.37-0.12l-15.67-2.11l-38.14-5.12
	l2.45-1.67l21.94-14.98l1.59-1.09l8.73-5.93l6.49-4.41l1.92-1.31l63.21-43.23l2.55-1.74l26.3-17.96l-2.93,14.84l-1,5.18l-1.14,5.79
	l-5.12,26.1l-3.3,16.74L388.411,772.49z"/>
<line class="st4" x1="685.861" y1="257.18" x2="687.821" y2="259.17"/>
<line class="st0" x1="586.701" y1="156.33" x2="573.981" y2="143.39"/>
<g>
	<path class="st0" d="M1282.32,640.706c-0.564-67.854-52.357-123.426-118.4-129.58h-52.344v64.298h104.162
		c36.61,0,66.384,29.774,66.384,66.384c0,36.597-29.774,66.384-66.384,66.384h-122.31c0,0-34.983,64.298-112.534,64.298h183.774
		c65.689-6.508,117.088-61.923,117.652-129.514c0.013-0.381,0.013-0.748,0.013-1.129S1282.333,641.099,1282.32,640.706z
		 M1047.279,575.424v-64.298h-66.384c-23.515,0-46.308,6.259-66.384,18.148v112.534c0-36.61,29.787-66.384,66.384-66.384H1047.279z"
		/>
	<linearGradient id="SVGID_2_" gradientUnits="userSpaceOnUse" x1="980.8947" y1="287.0133" x2="980.8947" y2="800.9117">
		<stop  offset="0" style="stop-color:#5A216E"/>
		<stop  offset="0.4077" style="stop-color:#5C216E"/>
		<stop  offset="0.5545" style="stop-color:#63236F"/>
		<stop  offset="0.6592" style="stop-color:#6E2570"/>
		<stop  offset="0.7439" style="stop-color:#7F2872"/>
		<stop  offset="0.8164" style="stop-color:#952C75"/>
		<stop  offset="0.8806" style="stop-color:#B13078"/>
		<stop  offset="0.9386" style="stop-color:#D1367C"/>
		<stop  offset="0.9902" style="stop-color:#F53D80"/>
		<stop  offset="1" style="stop-color:#FD3E81"/>
	</linearGradient>
	<path class="st5" d="M980.908,289.915c-72.184,0-130.695,58.511-130.695,130.695v221.198c0,72.053,58.629,130.682,130.682,130.682
		c77.551,0,112.534-64.298,112.534-64.298c11.902-20.077,18.148-42.883,18.148-66.384V419.482
		C1110.973,347.809,1052.698,289.915,980.908,289.915z M1047.279,641.808c0,17.649-6.915,33.684-18.174,45.586
		c-12.112,12.807-29.249,20.798-48.21,20.798c-36.597,0-66.384-29.787-66.384-66.384V356.68c0-36.597,29.787-66.371,66.384-66.371
		c36.61,0,66.384,29.774,66.384,66.371V641.808z"/>
	<linearGradient id="SVGID_3_" gradientUnits="userSpaceOnUse" x1="1332.9919" y1="641.8081" x2="1222.4736" y2="641.8081">
		<stop  offset="0" style="stop-color:#5A216E"/>
		<stop  offset="0.2239" style="stop-color:#5D226E"/>
		<stop  offset="0.3813" style="stop-color:#66236F"/>
		<stop  offset="0.5184" style="stop-color:#762671"/>
		<stop  offset="0.6438" style="stop-color:#8C2A74"/>
		<stop  offset="0.7613" style="stop-color:#A82F77"/>
		<stop  offset="0.8729" style="stop-color:#CB357B"/>
		<stop  offset="0.9779" style="stop-color:#F33C80"/>
		<stop  offset="1" style="stop-color:#FD3E81"/>
	</linearGradient>
	<path class="st6" d="M1346.422,641.808c0,72.053-58.616,130.682-130.682,130.682h-51.071
		c65.689-6.508,117.088-61.923,117.652-129.514c0.013-0.381,0.013-0.748,0.013-1.129s0-0.748-0.013-1.142
		c-0.564-67.854-52.357-123.426-118.4-129.58h51.819C1287.805,511.126,1346.422,569.755,1346.422,641.808z"/>
	<linearGradient id="SVGID_4_" gradientUnits="userSpaceOnUse" x1="980.8947" y1="222.9029" x2="980.8947" y2="386.2213">
		<stop  offset="0" style="stop-color:#5A216E"/>
		<stop  offset="0.2222" style="stop-color:#5D226E"/>
		<stop  offset="0.3796" style="stop-color:#66236F"/>
		<stop  offset="0.517" style="stop-color:#762671"/>
		<stop  offset="0.643" style="stop-color:#8C2A74"/>
		<stop  offset="0.7612" style="stop-color:#A82F77"/>
		<stop  offset="0.8735" style="stop-color:#CB357B"/>
		<stop  offset="0.9793" style="stop-color:#F43C80"/>
		<stop  offset="1" style="stop-color:#FD3E81"/>
	</linearGradient>
	<path class="st7" d="M1111.577,356.68v62.802c-0.604-71.672-58.878-129.567-130.669-129.567
		c-72.184,0-130.695,58.511-130.695,130.695v-63.93c0-72.053,58.629-130.669,130.682-130.669
		C1052.961,226.011,1111.577,284.627,1111.577,356.68z"/>
	<g>
		<linearGradient id="SVGID_5_" gradientUnits="userSpaceOnUse" x1="1237.8088" y1="378.647" x2="1430.4675" y2="213.1357">
			<stop  offset="0.0056" style="stop-color:#5A216E"/>
			<stop  offset="0.1238" style="stop-color:#64236F"/>
			<stop  offset="0.3222" style="stop-color:#7E2772"/>
			<stop  offset="0.5765" style="stop-color:#A82F77"/>
			<stop  offset="0.8736" style="stop-color:#E2397E"/>
			<stop  offset="1" style="stop-color:#FD3E81"/>
		</linearGradient>
		<path class="st8" d="M1390.095,273.296l-126.522,106.38c-3.451,2.887-7.663,4.291-11.836,4.291
			c-5.275,0-10.511-2.244-14.159-6.587c-2.808-3.346-4.304-7.493-4.304-11.823c0-0.551,0.026-1.102,0.079-1.653
			c0.433-4.908,2.756-9.356,6.535-12.518l126.522-106.367c7.808-6.535,19.46-5.498,25.982,2.296
			C1398.924,255.122,1397.889,266.774,1390.095,273.296z"/>
	</g>
	<g>
		<linearGradient id="SVGID_6_" gradientUnits="userSpaceOnUse" x1="1176.0647" y1="318.012" x2="1264.7798" y2="189.9801">
			<stop  offset="0" style="stop-color:#5A216E"/>
			<stop  offset="0.1914" style="stop-color:#812873"/>
			<stop  offset="0.5474" style="stop-color:#C3347A"/>
			<stop  offset="0.806" style="stop-color:#ED3B7F"/>
			<stop  offset="0.9384" style="stop-color:#FD3E81"/>
		</linearGradient>
		<path class="st9" d="M1243.022,255.516l-42.069,57.186c-3.635,4.855-9.198,7.401-14.815,7.401c-3.845,0-7.729-1.194-11.036-3.674
			c-4.829-3.622-7.375-9.172-7.375-14.775c0-3.858,1.194-7.729,3.674-11.049l42.069-57.173c2.979-3.976,7.296-6.535,12.177-7.23
			c4.868-0.695,9.723,0.538,13.673,3.504c3.937,2.952,6.495,7.256,7.191,12.138C1247.221,246.724,1245.974,251.579,1243.022,255.516
			z"/>
	</g>
	<g>
		<linearGradient id="SVGID_7_" gradientUnits="userSpaceOnUse" x1="1303.4767" y1="458.9764" x2="1436.7806" y2="375.9178">
			<stop  offset="0" style="stop-color:#5A216E"/>
			<stop  offset="0.3556" style="stop-color:#9F2D76"/>
			<stop  offset="0.6523" style="stop-color:#D2367C"/>
			<stop  offset="0.8756" style="stop-color:#F13C80"/>
			<stop  offset="1" style="stop-color:#FD3E81"/>
		</linearGradient>
		<path class="st10" d="M1395.618,415.512c-1.037,4.829-3.871,8.949-8.004,11.639l-59.22,39.156c-3.11,2.008-6.6,2.979-10.052,2.979
			c-6.049,0-11.967-2.966-15.497-8.398c-2.008-3.097-2.966-6.574-2.966-10.012c0-6.049,2.966-11.98,8.411-15.51l59.22-39.143
			c4.16-2.703,9.08-3.622,13.909-2.585c4.816,1.023,8.949,3.858,11.626,7.991C1395.723,405.763,1396.641,410.697,1395.618,415.512z"
			/>
	</g>
</g>
</svg>
