<?xml version="1.0" encoding="utf-8"?>
<!-- Generator: Adobe Illustrator 24.3.0, SVG Export Plug-In . SVG Version: 6.00 Build 0)  -->
<svg version="1.1" id="Layer_1" xmlns="http://www.w3.org/2000/svg" xmlns:xlink="http://www.w3.org/1999/xlink" x="0px" y="0px"
	 viewBox="0 0 92.629 92.629" style="enable-background:new 0 0 92.629 92.629;" xml:space="preserve">
<style type="text/css">
	.st0{fill:#00FFE5;stroke:#078BC7;stroke-width:3;stroke-miterlimit:10;}
</style>
<g>
	<g>
		<g>
			<path class="st0" d="M74.929,17.699c-7.65-7.65-17.81-11.85-28.62-11.85s-20.97,4.2-28.61,11.85
				c-7.64,7.64-11.85,17.8-11.85,28.61s4.21,20.97,11.85,28.62c7.64,7.64,17.8,11.85,28.61,11.85s20.97-4.21,28.62-11.85
				c7.64-7.65,11.85-17.81,11.85-28.62S82.569,25.339,74.929,17.699z M46.309,78.619c-17.81,0-32.31-14.49-32.31-32.31
				c0-17.81,14.5-32.31,32.31-32.31c17.82,0,32.31,14.5,32.31,32.31C78.619,64.129,64.129,78.619,46.309,78.619z"/>
		</g>
	</g>
	<g>
		<g>
			<g>
				<path class="st0" d="M67.539,46.309c0,2.25-1.83,4.08-4.08,4.08h-13.07v13.07c0,2.25-1.82,4.08-4.08,4.08
					c-2.25,0-4.07-1.83-4.07-4.08v-13.07h-13.07c-2.26,0-4.08-1.83-4.08-4.08s1.82-4.08,4.08-4.08h13.07v-13.08
					c0-2.25,1.82-4.08,4.07-4.08c2.26,0,4.08,1.83,4.08,4.08v13.08h13.07C65.709,42.229,67.539,44.059,67.539,46.309z"/>
			</g>
		</g>
	</g>
</g>
</svg>
