<?xml version="1.0" encoding="utf-8"?>
<!-- Generator: Adobe Illustrator 24.3.0, SVG Export Plug-In . SVG Version: 6.00 Build 0)  -->
<svg version="1.1" id="Layer_1" xmlns="http://www.w3.org/2000/svg" xmlns:xlink="http://www.w3.org/1999/xlink" x="0px" y="0px"
	 viewBox="0 0 80.286 80.286" style="enable-background:new 0 0 80.286 80.286;" xml:space="preserve">
<style type="text/css">
	.st0{fill:#FF417F;}
</style>
<g>
	<g>
		<g>
			<path class="st0" d="M47.065,76.077H20.986c-7.476,0-13.558-6.082-13.558-13.558V17.767c0-7.476,6.082-13.558,13.558-13.558
				h26.078c7.476,0,13.558,6.082,13.558,13.558v8.089c0,2.918-2.374,5.317-5.291,5.348c-1.429,0.001-2.796-0.535-3.819-1.547
				c-1.023-1.012-1.586-2.362-1.586-3.801v-9.618c0-0.291-0.237-0.528-0.528-0.528H19.618c-0.291,0-0.528,0.237-0.528,0.528v47.649
				c0,0.291,0.237,0.528,0.528,0.528h29.781c0.291,0,0.528-0.237,0.528-0.528v-8.773c0-2.949,2.399-5.348,5.348-5.348
				s5.348,2.399,5.348,5.348v7.405C60.623,69.994,54.541,76.077,47.065,76.077z M20.986,7.339c-5.75,0-10.428,4.678-10.428,10.428
				v44.752c0,5.75,4.678,10.428,10.428,10.428h26.078c5.75,0,10.428-4.678,10.428-10.428v-7.405c0-1.223-0.995-2.218-2.218-2.218
				c-1.223,0-2.218,0.995-2.218,2.218v8.773c0,2.017-1.641,3.658-3.658,3.658H19.618c-2.017,0-3.658-1.641-3.658-3.658V16.237
				c0-2.017,1.641-3.658,3.658-3.658h29.781c2.017,0,3.658,1.641,3.658,3.658v9.618c0,0.597,0.234,1.157,0.658,1.577
				c0.424,0.419,0.968,0.65,1.584,0.641c1.21-0.013,2.194-1.008,2.194-2.218v-8.089c0-5.75-4.678-10.428-10.428-10.428H20.986z"/>
		</g>
		<g>
			<g>
				<path class="st0" d="M41.685,59.419c-1.47,0-2.851-0.572-3.89-1.611L24.467,44.481c-0.897-0.905-1.458-2.088-1.586-3.337
					c-0.017-0.201-0.024-0.374-0.024-0.553c0-1.462,0.57-2.843,1.607-3.886l13.455-13.45c1.033-1.037,2.412-1.61,3.881-1.612
					c0.002,0,0.004,0,0.006,0c1.472,0,2.854,0.572,3.894,1.612c2.142,2.142,2.142,5.631,0.002,7.779l-4.11,4.106h25.764
					c3.034,0,5.502,2.467,5.502,5.501s-2.468,5.502-5.502,5.502H41.69l3.885,3.885c1.042,1.042,1.615,2.426,1.614,3.897
					c-0.001,1.468-0.575,2.848-1.616,3.885C44.546,58.846,43.162,59.419,41.685,59.419z M41.805,24.773c-0.001,0-0.002,0-0.002,0
					c-0.632,0.001-1.225,0.247-1.669,0.693L26.681,38.914c-0.446,0.449-0.694,1.046-0.694,1.676c0,0.089,0.004,0.175,0.011,0.261
					c0.053,0.521,0.292,1.022,0.688,1.421l13.323,13.323c0.897,0.897,2.469,0.891,3.35,0.004c0.454-0.452,0.701-1.045,0.701-1.677
					c0.001-0.634-0.247-1.231-0.698-1.681l-6.556-6.557c-0.448-0.448-0.581-1.121-0.339-1.706c0.242-0.584,0.813-0.966,1.446-0.966
					h29.444c1.308,0,2.371-1.064,2.371-2.371c0-1.307-1.064-2.371-2.371-2.371H37.811c-0.633,0-1.204-0.381-1.446-0.967
					s-0.108-1.258,0.34-1.706l6.782-6.776c0.921-0.925,0.922-2.43-0.001-3.353C43.037,25.02,42.441,24.773,41.805,24.773z"/>
			</g>
			<g>
				<path class="st0" d="M25.939,45.305c-0.335,0-0.672-0.107-0.956-0.326c-1.207-0.932-1.973-2.339-2.104-3.86
					c-0.073-0.857,0.558-1.612,1.413-1.692c0.861-0.075,1.616,0.544,1.704,1.399c0.056,0.548,0.295,1.048,0.69,1.448l0.361,0.361
					c0.584,0.584,0.614,1.52,0.068,2.14C26.807,45.124,26.374,45.305,25.939,45.305z"/>
			</g>
		</g>
	</g>
</g>
</svg>
