<?xml version="1.0" encoding="utf-8"?>
<!-- Generator: Adobe Illustrator 24.3.0, SVG Export Plug-In . SVG Version: 6.00 Build 0)  -->
<svg version="1.1" id="Layer_1" xmlns="http://www.w3.org/2000/svg" xmlns:xlink="http://www.w3.org/1999/xlink" x="0px" y="0px"
	 viewBox="0 0 155.371 155.371" style="enable-background:new 0 0 155.371 155.371;" xml:space="preserve">
<style type="text/css">
	.st0{fill:#2EFF3F;stroke:#078BC7;stroke-width:4;stroke-miterlimit:10;}
</style>
<g>
	<path class="st0" d="M141.766,82.431c0,35.389-28.691,64.08-64.08,64.08c-35.362,0-63.89-28.365-64.08-63.727
		C13.471,57.266,28.25,35.192,49.755,24.778c5.613-2.712,12.122,1.356,12.122,7.566v0.108c0,3.227-1.871,6.183-4.773,7.593
		c-15.783,7.674-26.63,23.891-26.549,42.657c0.136,25.952,21.152,46.86,47.104,46.86c26.033,0,47.104-21.098,47.104-47.104
		c0-18.657-10.847-34.765-26.549-42.413c-2.902-1.41-4.746-4.285-4.746-7.512v-0.19c0-6.183,6.481-10.305,12.04-7.62
		C126.987,35.083,141.766,57.049,141.766,82.431z"/>
	<path class="st0" d="M69.225,71.232V17.158c0-4.583,3.715-8.298,8.298-8.298h0.38c4.583,0,8.298,3.715,8.298,8.298v54.1
		c0,4.583-3.715,8.298-8.298,8.298h-0.38C72.941,79.53,69.225,75.815,69.225,71.232z"/>
</g>
</svg>
